<svg xmlns:xlink="http://www.w3.org/1999/xlink" xmlns="http://www.w3.org/2000/svg" width="149" height="40" viewBox="0 0 172 40" fill="none"><g clip-path="url(#a)" fill="white"><path d="M0 0h151.148c.164 3.553 2.125 5.65 5.485 6.6-.433 2.354.125 4.427 1.835 6.122 1.71 1.696 3.838 2.234 6.218 1.817.931 3.377 3.14 5.18 6.629 5.463V40H0V0Zm102.58 8.816v19.878h5.498v-2.017c.286.345.492.587.719.825a5.13 5.13 0 0 0 2.066 1.382c2.648.918 5.439-.311 6.702-2.956a10.297 10.297 0 0 0 .81-5.692 7.657 7.657 0 0 0-1.396-3.674 5.348 5.348 0 0 0-1.739-1.626 5.408 5.408 0 0 0-4.648-.383 5.378 5.378 0 0 0-1.987 1.318c-.188.187-.349.384-.534.567V9.203l-5.491-.387Zm-8.929 17.692c.565 1.727 1.284 2.355 3.025 2.576 1.232.155 2.442.031 3.447-.787 1.274-1.036 1.521-2.473 1.49-3.992a.289.289 0 0 0-.181-.215c-.576-.055-1.155-.086-1.745-.127 0 .141 0 .235-.02.345a4.29 4.29 0 0 1-.095.977.803.803 0 0 1-.485.47c-.3.066-.468-.204-.534-.473a2.444 2.444 0 0 1-.056-.573c-.018-2.024-.031-4.049-.038-6.075 0-2.1-.967-3.405-3.011-3.978a12.048 12.048 0 0 0-5.583-.225c-1.776.346-3.252 1.164-4.05 2.867a4.982 4.982 0 0 0-.423 2.762l3.751-.255c.349-.02.663-.059 1.001-.093.028-.18.05-.346.08-.501.046-.318.203-.61.443-.826.24-.217.549-.343.873-.359.287-.034.578.025.829.166.251.142.45.36.567.622.164.532-.077 1.036-.677 1.357a2.544 2.544 0 0 1-.454.207c-.436.142-.879.266-1.315.404-1.287.348-2.555.76-3.8 1.233-1.462.625-2.03 1.91-2.016 3.43a3.31 3.31 0 0 0 .53 1.943c.374.579.92 1.029 1.563 1.288 2.09.92 5.537.591 6.874-2.168h.01Zm-48.108-6.824c.032-.21.053-.376.084-.539.047-.303.197-.581.424-.79.228-.207.52-.333.829-.356.29-.047.587 0 .846.136.26.136.468.353.591.617.181.545-.06 1.036-.698 1.38a2.359 2.359 0 0 1-.457.205c-.436.138-.88.259-1.315.4-1.312.36-2.603.786-3.87 1.278-1.395.618-1.94 1.906-1.933 3.357.007 1.45.65 2.62 2.063 3.218a6.623 6.623 0 0 0 1.744.477c1.992.241 4.187-.508 5.133-2.47 0 0 .045 0 0 0a9.51 9.51 0 0 0 .903 1.472c.796.908 1.909 1.06 3.053 1.036 2.74-.045 4.567-2.307 4.03-5.032l-1.867-.12c-.038.459-.055.856-.115 1.246-.042.29-.192.542-.534.535-.342-.007-.47-.266-.526-.552a3.731 3.731 0 0 1-.06-.656c0-1.996-.007-3.994-.02-5.992 0-1.965-.911-3.222-2.792-3.843a12.043 12.043 0 0 0-4.462-.47 7.515 7.515 0 0 0-3.615 1.036c-.79.5-1.415 1.22-1.798 2.067a4.714 4.714 0 0 0-.355 2.705l4.717-.345Zm-6.346 2.417a7.93 7.93 0 0 0-.925-4.043c-1.472-2.666-3.82-3.889-6.846-3.84-3.14.048-5.498 1.436-6.786 4.268-1.288 2.831-.945 5.598 1.068 8.022 1.744 2.11 4.12 2.818 6.814 2.576a7.271 7.271 0 0 0 4.707-2.072 6.203 6.203 0 0 0 1.556-2.628l-4.013-.29c-.041 0-.087-.024-.122 0a.78.78 0 0 0-.328.131c-.698.732-1.563.87-2.49.822-1.449-.073-2.593-1.62-2.171-2.935h9.536v-.01Zm102.862 2.28c-1.323-.094-2.572-.17-3.838-.273a.99.99 0 0 0-.824.248 2.933 2.933 0 0 1-3.056.5c-1.047-.361-1.417-1.242-1.525-2.271-.042-.384.07-.494.468-.49h9.148a8.057 8.057 0 0 0-.816-3.872c-1.724-3.515-5.709-4.693-9.131-3.705a7.289 7.289 0 0 0-3.751 2.5 7.159 7.159 0 0 0-1.535 4.21 7.243 7.243 0 0 0 .474 3.19 7.313 7.313 0 0 0 1.815 2.68c2.745 2.666 7.302 2.494 9.895.812a6.414 6.414 0 0 0 2.676-3.53ZM71.23 17.353a.75.75 0 0 0-.031-.152 4.685 4.685 0 0 0-.164-.287 5.227 5.227 0 0 0-2.89-2.196 12.124 12.124 0 0 0-4.922-.463 6.738 6.738 0 0 0-3.94 1.53c-1.821 1.558-1.94 4.9.747 6.054a17.99 17.99 0 0 0 2.704.825c1.008.256 2.045.408 3.053.67.621.163.91.546.862.922-.049.377-.496.653-1.113.715a3.723 3.723 0 0 1-1.616-.145 3.693 3.693 0 0 1-1.395-.818c-.61-.584-1.047-.473-1.658-.097-1.046.65-2.18 1.215-3.307 1.837.104.152.181.276.272.394a6.835 6.835 0 0 0 3.426 2.396c2.175.702 4.5.807 6.73.304 2.32-.5 3.975-1.878 4.1-4.396.07-1.402-.373-2.6-1.626-3.36a7.14 7.14 0 0 0-1.863-.811c-1.263-.346-2.557-.556-3.838-.846a2.564 2.564 0 0 1-.92-.367.974.974 0 0 1-.41-.69.845.845 0 0 1 .51-.563 2.9 2.9 0 0 1 1.141-.142c.452.043.886.195 1.264.443.377.248.688.585.903.98l3.981-1.737Zm71.568 8.392c.105.152.182.28.273.397a6.439 6.439 0 0 0 2.613 2.072c2.338 1.019 4.78 1.115 7.257.69a5.683 5.683 0 0 0 3.263-1.63c1.395-1.485 1.521-4.192.205-5.611a4.994 4.994 0 0 0-2.529-1.382c-1.047-.269-2.153-.442-3.224-.69a7.778 7.778 0 0 1-1.574-.522.866.866 0 0 1-.401-.69.845.845 0 0 1 .506-.563 2.749 2.749 0 0 1 1.099-.145c.459.035.902.185 1.288.434.386.25.703.59.921.992l4.009-1.761c-.091-.166-.154-.304-.231-.428a5.225 5.225 0 0 0-2.892-2.193 12.162 12.162 0 0 0-5.045-.446 6.847 6.847 0 0 0-3.723 1.433c-1.905 1.527-2.17 5.05.914 6.265.796.287 1.613.518 2.442.69 1.012.245 2.048.404 3.057.667.607.155.914.556.858.925-.056.37-.474.643-1.071.691a3.716 3.716 0 0 1-3.022-.936c-.628-.594-1.074-.504-1.723-.1-1.057.68-2.167 1.23-3.284 1.84h.014ZM22.697 13.882l3.164-.227c.101-1.568-.83-2.801-2.41-3.236a12.262 12.262 0 0 0-3.403-.297 7.066 7.066 0 0 0-2.808.545c-1.441.632-2.279 1.686-2.328 3.278-.017.462 0 .925 0 1.426h-1.395v3.343h1.395v9.98h5.852V18.679h2.76v-3.336h-2.792c.05-.621.056-1.198.154-1.761a.796.796 0 0 1 .292-.515.812.812 0 0 1 .57-.176.86.86 0 0 1 .545.178c.156.12.265.288.31.478.024.11.055.215.094.335Zm51.457 4.81v6.99c-.02.485.08.967.291 1.404.211.438.527.818.92 1.107 1.12.843 2.421 1.005 3.775.915a4.375 4.375 0 0 0 2.463-.815c1.33-1.036 1.518-2.49 1.497-4.02a.265.265 0 0 0-.168-.183c-.59-.051-1.179-.082-1.744-.12-.03.472-.088.943-.175 1.409a.573.573 0 0 1-.436.345.677.677 0 0 1-.488-.345 2.277 2.277 0 0 1-.122-.847v-5.418c0-.131.017-.262.028-.431h3.14V15.35h-3.21v-4.023l-3.367-.235c-.049 1.167-.29 2.234-1.075 3.108-.785.874-1.908 1.13-3.063 1.185v3.318l1.734-.01Zm51.59 10.016c0-.156.021-.266.021-.373 0-6.244-.01-12.488-.028-18.731 0-.346-.115-.415-.429-.432-1.086-.059-2.171-.148-3.252-.221l-1.982-.114v19.87h5.67Zm36.709-1.081h-.074c-.118-.439-.24-.874-.349-1.313-.181-.642-.181-.642-.865-.604a.53.53 0 0 0-.119.045v2.942h.51v-1.989c.23.58.387 1.164.572 1.727.038.11.199.266.286.252a.461.461 0 0 0 .318-.263c.188-.552.349-1.119.509-1.678h.087v1.92h.489v-2.939c-.789-.114-.789-.114-.991.598-.136.442-.255.867-.373 1.302Zm-1.853-1.879h-2.188l.025.449.764.052v2.459h.614v-2.463l.785-.051v-.446Z"/><path d="M108.264 21.69c0-1.277.827-2.123 2.093-2.13a2.044 2.044 0 0 1 1.972 1.32c.098.264.139.544.122.824 0 1.275-.848 2.148-2.094 2.155-1.245.007-2.09-.863-2.093-2.168ZM93.32 22.057c0 .808.035 1.633-.349 2.417a1.42 1.42 0 0 1-.936.71 1.446 1.446 0 0 1-1.157-.227 1.039 1.039 0 0 1-.44-.762 1.027 1.027 0 0 1 .31-.823c.174-.159.372-.288.587-.383.646-.328 1.298-.618 1.985-.932ZM48.733 22.064a5.441 5.441 0 0 1-.244 2.255 1.417 1.417 0 0 1-.84.806 1.449 1.449 0 0 1-1.166-.081 1.03 1.03 0 0 1-.119-1.848c.211-.133.433-.248.663-.345.551-.256 1.102-.508 1.706-.787ZM29.749 20.074a1.764 1.764 0 0 1 .466-1.377 1.796 1.796 0 0 1 1.348-.574c1.047-.024 1.874.394 1.78 1.951h-3.594ZM132.984 20.084c0-.776.269-1.38.963-1.726a1.986 1.986 0 0 1 2.094.086c.576.39.589 1.009.562 1.647l-3.619-.007Z"/></g><defs><clipPath id="a"><path fill="black" d="M0 0h171.304v40H0z"/></clipPath></defs></svg>
