<svg xmlns:xlink="http://www.w3.org/1999/xlink" xmlns="http://www.w3.org/2000/svg" width="149" height="40" viewBox="0 0 149 40" fill="none"><g clip-path="url(#a)" fill="white"><path d="M5.415 0v10.098c.157-.043.312-.097.462-.16 6.228-3.134 13.788.349 15.32 7.082.189.826.288 1.67.297 2.516.033 3.58.014 7.166.012 10.744 0 .147-.026.295-.043.478h-5.379V19.76c0-1.634-.468-3.096-1.717-4.215-1.7-1.516-3.666-1.843-5.75-.94-2.04.882-3.123 2.52-3.158 4.71-.056 3.537-.016 7.076-.018 10.613v.821H0V0h5.415ZM25.358 40c.683-1.618 1.36-3.237 2.051-4.853.547-1.277 1.134-2.538 1.65-3.828a1.5 1.5 0 0 0 .01-1.022c-2.73-6.809-5.477-13.612-8.24-20.41-.081-.2-.157-.399-.256-.652a2.26 2.26 0 0 1 .396-.075c1.651 0 3.302.022 4.952-.02.507-.013.57.3.697.61l5.355 13.076c.104.254.223.502.396.889.205-.443.358-.764.5-1.088 1.867-4.279 3.747-8.555 5.596-12.842.214-.496.488-.651 1.025-.651 1.648.035 3.302.013 5.073.013-.112.297-.189.528-.285.749L31.373 39.458c-.077.176-.132.361-.204.542h-5.81ZM116.594 9.196v1.381c.866-.435 1.642-.954 2.499-1.231 3.48-1.127 6.664-.362 9.492 1.791 2.594 1.977 4.015 4.671 4.107 7.904.109 3.817.036 7.64.039 11.466-.01.074-.028.147-.053.217h-5.39v-.79c0-3.365.016-6.73 0-10.094-.015-2.383-1.037-4.17-3.293-5.185-3.294-1.473-7.322.98-7.38 4.55-.058 3.57-.016 7.12-.018 10.684v.825h-5.456V9.196h5.453ZM141.878.269v8.878h6.033v4.995h-5.98a4.809 4.809 0 0 0-.066.521c0 2.692-.012 5.384 0 8.078.008 1.494.869 2.494 2.289 2.618.441.04.899-.105 1.431-.177l2.707 4.506c-.925.601-1.937.88-2.976 1.024-4.555.624-8.786-2.911-8.879-7.447-.056-2.736-.018-5.472-.02-8.208v-.855h-3.623V9.153h3.606V.265l5.478.004ZM69.367 30.723V9.2h5.387v1.682c1.616-1.652 3.511-2.268 5.632-2.233 2.263.038 4.302.765 6.208 2.137l-2.92 4.595c-1.34-1.063-2.81-1.516-4.473-1.238a5.347 5.347 0 0 0-3.177 1.78 5.216 5.216 0 0 0-1.27 3.38c-.011 3.56 0 7.122 0 10.684v.735h-5.387ZM61.415.284V10.96c-5.368-3.59-11.49-2.215-14.955 1.367-3.535 3.655-4.155 9.31-1.463 13.601 1.418 2.261 3.382 3.871 5.932 4.73 3.699 1.243 7.175.704 10.515-1.467v1.517h5.23V.284h-5.26Zm-6.55 25.856c-3.54.027-6.259-2.595-6.289-6.067-.03-3.315 2.686-6.02 6.096-6.072 3.36-.05 6.175 2.688 6.216 6.047.04 3.262-2.733 6.067-6.023 6.092ZM108.503 9.778c.008-.471-.119-.651-.628-.637-1.385.033-2.773.01-4.157.014-.169 0-.337.032-.562.055v1.824c-2.553-1.746-5.267-2.475-8.246-2.085-2.98.391-5.452 1.752-7.358 4.051-3.2 3.86-3.412 9.251-.528 13.448a10.789 10.789 0 0 0 5.742 4.267c3.682 1.173 7.132.575 10.434-1.618v1.636h5.303V14.332c-.008-1.515-.024-3.036 0-4.554ZM96.071 26.14c-3.25-.082-5.919-2.947-5.84-6.27.076-3.244 2.958-5.946 6.256-5.863 3.424.084 6.146 2.855 6.075 6.183-.082 3.437-2.919 6.04-6.491 5.95Z"/></g><defs><clipPath id="a"><path fill="black" d="M0 0h148.293v40H0z"/></clipPath></defs></svg>