<svg xmlns:xlink="http://www.w3.org/1999/xlink" xmlns="http://www.w3.org/2000/svg" width="149" height="40" viewBox="0 0 99 48" fill="none"><g clip-path="url(#a)" fill="white"><path d="m24.084 48-.361-3.322c.69-.081 1.429-.357 2.201-.664.28-.114.559-.227.854-.325 7.18-2.576 9.069-6.417 9.775-11.78.411-3.08.05-6.677-.295-10.162C35.42 13.207 34.467 3.534 45.162 0l1.084 3.176c-8.132 2.69-7.425 9.902-6.604 18.247.361 3.663.74 7.455.28 10.923-.74 5.558-2.695 11.165-11.977 14.503a19.42 19.42 0 0 1-.772.292c-.904.34-1.922.73-3.089.859M12.946 11.36c3.729 0 6.85 1.167 9.331 3.5 2.48 2.334 3.73 5.267 3.73 8.784 0 3.517-1.25 6.433-3.763 8.735-2.513 2.3-5.668 3.468-9.495 3.468-3.648 0-6.681-1.157-9.102-3.468C1.216 30.077 0 27.177 0 23.709c0-3.565 1.221-6.515 3.664-8.848 2.464-2.334 5.558-3.5 9.282-3.5Zm.148 3.258c-2.76 0-5.044.858-6.818 2.56-1.775 1.702-2.678 3.89-2.678 6.53 0 2.577.887 4.716 2.678 6.418 1.79 1.702 4.025 2.56 6.719 2.56s4.945-.875 6.752-2.609c1.807-1.734 2.71-3.905 2.71-6.498 0-2.528-.903-4.65-2.71-6.369-1.807-1.734-4.025-2.592-6.653-2.592M51.668 11.587h13.734v3.046H55.151v7.293h9.906v3.047h-9.906v7.422h10.58v3.046H51.668M85.28 11.376h2.432l10.86 24h-3.55l-3.22-7.082h-10.3l-3.023 7.082h-3.565l10.367-24Zm5.143 13.872-3.943-8.622-3.647 8.622h7.59Z"/></g><defs><clipPath id="a"><path fill="black" d="M0 0h98.571v48H0z"/></clipPath></defs></svg>