<svg xmlns:xlink="http://www.w3.org/1999/xlink" xmlns="http://www.w3.org/2000/svg" width="149" height="40" viewBox="0 0 139 56" fill="none"><g clip-path="url(#a)" fill="white"><path d="M14.152 56a13.848 13.848 0 0 1-5.438-1.109 14.127 14.127 0 0 1-4.603-3.166 14.52 14.52 0 0 1-3.062-4.736A14.797 14.797 0 0 1 0 41.411c0-8.16 6.318-14.522 14.402-14.517 7.746 0 14.046 6.578 14.037 14.63C28.426 49.541 22.05 56 14.152 56Zm-.25-22.842c-4.378 0-7.926 3.597-7.908 8.017.019 4.618 3.963 8.617 8.487 8.605 4.344-.011 7.922-3.646 7.92-8.047.004-4.61-3.922-8.573-8.498-8.575ZM104.233 38.986c-7.91 0-14.194-6.496-14.18-14.66.016-8.033 6.373-14.472 14.282-14.469 7.805 0 14.154 6.569 14.152 14.63-.002 8.025-6.362 14.499-14.254 14.499Zm8.06-14.8c.012-4.555-3.373-8.126-7.731-8.158-4.524-.034-8.4 3.944-8.415 8.634-.013 4.49 3.475 8.142 7.781 8.142a8.3 8.3 0 0 0 5.924-2.538 8.711 8.711 0 0 0 2.441-6.083v.004ZM139.002 42.742a8.63 8.63 0 0 1-1.479 4.87 8.314 8.314 0 0 1-3.937 3.122 8.098 8.098 0 0 1-4.973.246 8.265 8.265 0 0 1-4.212-2.719 18.528 18.528 0 0 1-1.556-2.224c-.37-.618-.695-.718-1.314-.273-2.24 1.61-4.521 3.16-6.787 4.733-1.024.709-1.403.633-2.103-.424-.656-.99-1.305-1.986-1.967-2.972-.482-.718-.343-1.267.355-1.752 6.799-4.714 13.596-9.433 20.392-14.157.852-.59 1.269-.511 1.848.349a518.347 518.347 0 0 1 4.402 6.647c.891 1.365 1.285 2.914 1.331 4.554Zm-6.012-.456c-.194-.457-.418-.9-.669-1.326-1.203-1.855-1.22-1.855-3.013-.589-2.142 1.515-2.369 1.174-.626 3.683.623.898 1.384 1.168 2.316.87a2.747 2.747 0 0 0 1.419-.984 2.859 2.859 0 0 0 .573-1.654ZM79.33 18.006c-.516-.062-1.438-.132-2.344-.297-.671-.12-.924.068-1.026.78-.37 2.87-.831 5.732-1.214 8.602-.118.886-.545 1.21-1.37 1.089l-3.924-.568c-.739-.11-.955-.602-.863-1.291.265-1.998.525-3.996.808-5.99.906-6.386 1.83-12.772 2.719-19.16.12-.859.488-1.266 1.332-1.137 2.678.392 5.37.71 8.027 1.21 4.403.83 7.142 4.734 6.708 9.399-.396 4.175-4.087 7.398-8.854 7.363Zm.608-6.004c.21-.072.711-.145 1.108-.395.806-.513 1.183-1.816.9-2.874-.266-1-.947-1.462-1.936-1.593-2.455-.322-2.392-.33-2.749 2.073-.388 2.549-.388 2.428 2.671 2.79h.006ZM36.192 37.968c-.275-.285-.663-.542-.85-.908-2.229-4.354-4.436-8.71-6.635-13.077-1.554-3.075-3.108-6.153-4.661-9.233-.536-1.068-.436-1.373.6-1.94 1.004-.55 2.01-1.095 3.026-1.62 1.017-.524 1.386-.395 1.913.643 2.834 5.589 5.663 11.18 8.487 16.773.621 1.233.673 1.258 1.883.614 2.239-1.191 4.471-2.388 6.711-3.571 1.11-.59 1.492-.47 2.061.645.5.976.978 1.964 1.479 2.937.399.773.2 1.301-.555 1.704a5821.55 5821.55 0 0 0-12.607 6.697c-.205.11-.441.176-.852.336ZM62.141 27.375c.052.697-.294 1.06-.935 1.173-1.274.22-2.545.44-3.82.649-.925.152-1.26-.09-1.435-1.115-.53-3.1-1.033-6.205-1.548-9.308-.831-4.995-1.663-9.99-2.497-14.985-.28-1.66-.185-1.84 1.406-2.138 1.057-.198 2.118-.378 3.179-.558.976-.161 1.294.06 1.478 1.151.65 3.787 1.276 7.574 1.908 11.351l2.218 13.311c.018.151.026.312.046.47Z"/></g><defs><clipPath id="a"><path fill="black" d="M0 0h139v56H0z"/></clipPath></defs></svg>