<svg xmlns="http://www.w3.org/2000/svg" xmlns:xlink="http://www.w3.org/1999/xlink" viewBox="0 0 184 80" width="184" height="80" preserveAspectRatio="xMidYMid meet" style="width: 100%; height: 100%; transform: translate3d(0px, 0px, 0px); content-visibility: visible;"><defs><clipPath id="__lottie_element_1910"><rect width="184" height="80" x="0" y="0"></rect></clipPath></defs><g clip-path="url(#__lottie_element_1910)"><g transform="matrix(1,0,0,1,76.875,34.125)" opacity="1" style="display: block;"><g opacity="1" transform="matrix(1,0,0,1,15.125,5.875)"><path fill="#FFFFFF" fill-opacity="1" d=" M92,-28 C92,-28 92,28 92,28 C92,34.622798919677734 86.622802734375,40 80,40 C80,40 -80,40 -80,40 C-86.622802734375,40 -92,34.622798919677734 -92,28 C-92,28 -92,-28 -92,-28 C-92,-34.622798919677734 -86.622802734375,-40 -80,-40 C-80,-40 80,-40 80,-40 C86.622802734375,-40 92,-34.622798919677734 92,-28z"></path></g></g><g transform="matrix(1,0,0,1,196,40)" opacity="1" style="display: block;"><g opacity="1" transform="matrix(1,0,0,1,-52,0)"><path fill="#EDE7E2" fill-opacity="1" d=" M36,-28 C36,-28 36,28 36,28 C36,32.415199279785156 32.415199279785156,36 28,36 C28,36 -28,36 -28,36 C-32.415199279785156,36 -36,32.415199279785156 -36,28 C-36,28 -36,-28 -36,-28 C-36,-32.415199279785156 -32.415199279785156,-36 -28,-36 C-28,-36 28,-36 28,-36 C32.415199279785156,-36 36,-32.415199279785156 36,-28z"></path></g></g><g transform="matrix(1,0,0,1,127.5,12)" opacity="1" style="display: block;"><g opacity="1" transform="matrix(1,0,0,1,16.5,28)"><path fill="#EDE7E2" fill-opacity="1" d=" M15.5,-20 C15.5,-20 -15.5,-20 -15.5,-20 C-15.5,-20 -15.5,20 -15.5,20 C-15.5,20 15.5,20 15.5,20 C15.5,20 15.5,-20 15.5,-20z"></path><path stroke-linecap="round" stroke-linejoin="round" fill-opacity="0" stroke="#000000" stroke-opacity="1" stroke-width="1" d=" M15.5,-20 C15.5,-20 -15.5,-20 -15.5,-20 C-15.5,-20 -15.5,20 -15.5,20 C-15.5,20 15.5,20 15.5,20 C15.5,20 15.5,-20 15.5,-20z"></path></g><g opacity="1" transform="matrix(1,0,0,1,16.5,5.5)"><path fill="#EDE7E2" fill-opacity="1" d=" M15.5,2.5 C15.5,2.5 -15.5,2.5 -15.5,2.5 C-15.5,2.5 -11.576000213623047,-2.5 -11.576000213623047,-2.5 C-11.576000213623047,-2.5 11.576000213623047,-2.5 11.576000213623047,-2.5 C11.576000213623047,-2.5 15.5,2.5 15.5,2.5z"></path><path stroke-linecap="round" stroke-linejoin="round" fill-opacity="0" stroke="#000000" stroke-opacity="1" stroke-width="1" d=" M15.5,2.5 C15.5,2.5 -15.5,2.5 -15.5,2.5 C-15.5,2.5 -11.576000213623047,-2.5 -11.576000213623047,-2.5 C-11.576000213623047,-2.5 11.576000213623047,-2.5 11.576000213623047,-2.5 C11.576000213623047,-2.5 15.5,2.5 15.5,2.5z"></path></g><g opacity="1" transform="matrix(1,0,0,1,16.5,50.5)"><path fill="#EDE7E2" fill-opacity="1" d=" M-15.5,-2.5 C-15.5,-2.5 15.5,-2.5 15.5,-2.5 C15.5,-2.5 11.576000213623047,2.5 11.576000213623047,2.5 C11.576000213623047,2.5 -11.576000213623047,2.5 -11.576000213623047,2.5 C-11.576000213623047,2.5 -15.5,-2.5 -15.5,-2.5z"></path><path stroke-linecap="round" stroke-linejoin="round" fill-opacity="0" stroke="#000000" stroke-opacity="1" stroke-width="1" d=" M-15.5,-2.5 C-15.5,-2.5 15.5,-2.5 15.5,-2.5 C15.5,-2.5 11.576000213623047,2.5 11.576000213623047,2.5 C11.576000213623047,2.5 -11.576000213623047,2.5 -11.576000213623047,2.5 C-11.576000213623047,2.5 -15.5,-2.5 -15.5,-2.5z"></path></g><g opacity="1" transform="matrix(1,0,0,1,16.5,2)"><path fill="#EDE7E2" fill-opacity="1" d=" M11.5,-1 C11.5,-1 -11.5,-1 -11.5,-1 C-11.5,-1 -11.5,1 -11.5,1 C-11.5,1 11.5,1 11.5,1 C11.5,1 11.5,-1 11.5,-1z"></path><path stroke-linecap="round" stroke-linejoin="round" fill-opacity="0" stroke="#000000" stroke-opacity="1" stroke-width="1" d=" M11.5,-1 C11.5,-1 -11.5,-1 -11.5,-1 C-11.5,-1 -11.5,1 -11.5,1 C-11.5,1 11.5,1 11.5,1 C11.5,1 11.5,-1 11.5,-1z"></path></g><g opacity="1" transform="matrix(1,0,0,1,16.5,54)"><path fill="#EDE7E2" fill-opacity="1" d=" M11.5,-1 C11.5,-1 -11.5,-1 -11.5,-1 C-11.5,-1 -11.5,1 -11.5,1 C-11.5,1 11.5,1 11.5,1 C11.5,1 11.5,-1 11.5,-1z"></path><path stroke-linecap="round" stroke-linejoin="round" fill-opacity="0" stroke="#000000" stroke-opacity="1" stroke-width="1" d=" M11.5,-1 C11.5,-1 -11.5,-1 -11.5,-1 C-11.5,-1 -11.5,1 -11.5,1 C-11.5,1 11.5,1 11.5,1 C11.5,1 11.5,-1 11.5,-1z"></path></g></g><g fill="rgb(0,0,0)" font-size="13" font-family="Mabry Pro" font-style="normal" font-weight="500" aria-label="DUE TO REORDER" transform="matrix(1,0,0,1,9.798999786376953,20.875)" opacity="1" style="display: block;"><g stroke-linecap="butt" stroke-linejoin="round" stroke-miterlimit="4" transform="matrix(1,0,0,1,0,0)" opacity="1" style="display: inherit;"><g><g transform="matrix(1,0,0,1,0,0)" opacity="1" style="display: block;"><path d=" M2.38,-7.86 C2.38,-7.86 4.41,-7.86 4.41,-7.86 C6.47,-7.86 7.55,-6.44 7.55,-4.52 C7.55,-2.78 6.44,-1.31 4.41,-1.31 C4.41,-1.31 2.38,-1.31 2.38,-1.31 C2.38,-1.31 2.38,-7.86 2.38,-7.86z M0.94,0 C0.94,0 4.41,0 4.41,0 C7.32,0 8.99,-1.92 8.99,-4.52 C8.99,-7.23 7.37,-9.16 4.41,-9.16 C4.41,-9.16 0.94,-9.16 0.94,-9.16 C0.94,-9.16 0.94,0 0.94,0z"></path><g opacity="1" transform="matrix(0.12999999523162842,0,0,0.12999999523162842,0,0)"></g></g></g></g><g stroke-linecap="butt" stroke-linejoin="round" stroke-miterlimit="4" transform="matrix(1,0,0,1,9.47700023651123,0)" opacity="1" style="display: inherit;"><g><g transform="matrix(1,0,0,1,0,0)" opacity="1" style="display: block;"><path d=" M0.84,-9.16 C0.84,-9.16 0.84,-3.67 0.84,-3.67 C0.84,-1.41 2.33,0.13 4.66,0.13 C6.99,0.13 8.48,-1.41 8.48,-3.67 C8.48,-3.67 8.48,-9.16 8.48,-9.16 C8.48,-9.16 7.04,-9.16 7.04,-9.16 C7.04,-9.16 7.04,-3.74 7.04,-3.74 C7.04,-2.16 6.07,-1.24 4.66,-1.24 C3.25,-1.24 2.28,-2.16 2.28,-3.74 C2.28,-3.74 2.28,-9.16 2.28,-9.16 C2.28,-9.16 0.84,-9.16 0.84,-9.16z"></path><g opacity="1" transform="matrix(0.12999999523162842,0,0,0.12999999523162842,0,0)"></g></g></g></g><g stroke-linecap="butt" stroke-linejoin="round" stroke-miterlimit="4" transform="matrix(1,0,0,1,18.732999801635742,0)" opacity="1" style="display: inherit;"><g><g transform="matrix(1,0,0,1,0,0)" opacity="1" style="display: block;"><path d=" M0.94,-9.16 C0.94,-9.16 0.94,0 0.94,0 C0.94,0 7.75,0 7.75,0 C7.75,0 7.75,-1.37 7.75,-1.37 C7.75,-1.37 2.38,-1.37 2.38,-1.37 C2.38,-1.37 2.38,-4.06 2.38,-4.06 C2.38,-4.06 7.23,-4.06 7.23,-4.06 C7.23,-4.06 7.23,-5.43 7.23,-5.43 C7.23,-5.43 2.38,-5.43 2.38,-5.43 C2.38,-5.43 2.38,-7.79 2.38,-7.79 C2.38,-7.79 7.62,-7.79 7.62,-7.79 C7.62,-7.79 7.62,-9.16 7.62,-9.16 C7.62,-9.16 0.94,-9.16 0.94,-9.16z"></path><g opacity="1" transform="matrix(0.12999999523162842,0,0,0.12999999523162842,0,0)"></g></g></g></g><g stroke-linecap="butt" stroke-linejoin="round" stroke-miterlimit="4" transform="matrix(1,0,0,1,27.07900047302246,0)" opacity="1" style="display: inherit;"><g><g style="display: none;"></g></g></g><g stroke-linecap="butt" stroke-linejoin="round" stroke-miterlimit="4" transform="matrix(1,0,0,1,30.198999404907227,0)" opacity="1" style="display: inherit;"><g><g transform="matrix(1,0,0,1,0,0)" opacity="1" style="display: block;"><path d=" M8.48,-9.16 C8.48,-9.16 0.37,-9.16 0.37,-9.16 C0.37,-9.16 0.37,-7.79 0.37,-7.79 C0.37,-7.79 3.7,-7.79 3.7,-7.79 C3.7,-7.79 3.7,0 3.7,0 C3.7,0 5.15,0 5.15,0 C5.15,0 5.15,-7.79 5.15,-7.79 C5.15,-7.79 8.48,-7.79 8.48,-7.79 C8.48,-7.79 8.48,-9.16 8.48,-9.16z"></path><g opacity="1" transform="matrix(0.12999999523162842,0,0,0.12999999523162842,0,0)"></g></g></g></g><g stroke-linecap="butt" stroke-linejoin="round" stroke-miterlimit="4" transform="matrix(1,0,0,1,39.090999603271484,0)" opacity="1" style="display: inherit;"><g><g transform="matrix(1,0,0,1,0,0)" opacity="1" style="display: block;"><path d=" M5.33,-1.24 C3.52,-1.24 2.06,-2.58 2.06,-4.57 C2.06,-6.53 3.48,-7.92 5.33,-7.92 C7.17,-7.92 8.6,-6.56 8.6,-4.58 C8.6,-2.61 7.14,-1.24 5.33,-1.24z M5.33,-9.3 C2.71,-9.35 0.5,-7.15 0.55,-4.58 C0.5,-2 2.71,0.18 5.33,0.13 C7.95,0.18 10.16,-2 10.11,-4.58 C10.16,-7.15 7.95,-9.35 5.33,-9.3z"></path><g opacity="1" transform="matrix(0.12999999523162842,0,0,0.12999999523162842,0,0)"></g></g></g></g><g stroke-linecap="butt" stroke-linejoin="round" stroke-miterlimit="4" transform="matrix(1,0,0,1,49.67300033569336,0)" opacity="1" style="display: inherit;"><g><g style="display: none;"></g></g></g><g stroke-linecap="butt" stroke-linejoin="round" stroke-miterlimit="4" style="display: inherit;"><g><g style="display: none;"></g></g></g><g stroke-linecap="butt" stroke-linejoin="round" stroke-miterlimit="4" transform="matrix(1,0,0,1,0,15)" opacity="1" style="display: inherit;"><g><g transform="matrix(1,0,0,1,0,0)" opacity="1" style="display: block;"><path d=" M2.38,-5.17 C2.38,-5.17 2.38,-7.79 2.38,-7.79 C2.38,-7.79 5.2,-7.79 5.2,-7.79 C6.19,-7.79 6.77,-7.32 6.77,-6.48 C6.77,-5.64 6.19,-5.17 5.2,-5.17 C5.2,-5.17 2.38,-5.17 2.38,-5.17z M8.34,0 C8.34,0 8.34,-0.21 8.34,-0.21 C8.16,-0.41 8.04,-0.64 7.99,-0.89 C7.95,-1.15 7.91,-1.54 7.88,-2.08 C7.83,-3.25 7.33,-3.9 6.44,-4.25 C7.59,-4.66 8.27,-5.51 8.27,-6.68 C8.27,-8.08 7.17,-9.16 5.33,-9.16 C5.33,-9.16 0.94,-9.16 0.94,-9.16 C0.94,-9.16 0.94,0 0.94,0 C0.94,0 2.38,0 2.38,0 C2.38,0 2.38,-3.8 2.38,-3.8 C2.38,-3.8 4.61,-3.8 4.61,-3.8 C5.67,-3.8 6.24,-3.36 6.24,-2.09 C6.24,-1.49 6.27,-1.05 6.32,-0.76 C6.38,-0.48 6.45,-0.22 6.57,0 C6.57,0 8.34,0 8.34,0z"></path><g opacity="1" transform="matrix(0.12999999523162842,0,0,0.12999999523162842,0,0)"></g></g></g></g><g stroke-linecap="butt" stroke-linejoin="round" stroke-miterlimit="4" transform="matrix(1,0,0,1,8.85300064086914,15)" opacity="1" style="display: inherit;"><g><g transform="matrix(1,0,0,1,0,0)" opacity="1" style="display: block;"><path d=" M0.94,-9.16 C0.94,-9.16 0.94,0 0.94,0 C0.94,0 7.75,0 7.75,0 C7.75,0 7.75,-1.37 7.75,-1.37 C7.75,-1.37 2.38,-1.37 2.38,-1.37 C2.38,-1.37 2.38,-4.06 2.38,-4.06 C2.38,-4.06 7.23,-4.06 7.23,-4.06 C7.23,-4.06 7.23,-5.43 7.23,-5.43 C7.23,-5.43 2.38,-5.43 2.38,-5.43 C2.38,-5.43 2.38,-7.79 2.38,-7.79 C2.38,-7.79 7.62,-7.79 7.62,-7.79 C7.62,-7.79 7.62,-9.16 7.62,-9.16 C7.62,-9.16 0.94,-9.16 0.94,-9.16z"></path><g opacity="1" transform="matrix(0.12999999523162842,0,0,0.12999999523162842,0,0)"></g></g></g></g><g stroke-linecap="butt" stroke-linejoin="round" stroke-miterlimit="4" transform="matrix(1,0,0,1,17.198999404907227,15)" opacity="1" style="display: inherit;"><g><g transform="matrix(1,0,0,1,0,0)" opacity="1" style="display: block;"><path d=" M5.33,-1.24 C3.52,-1.24 2.06,-2.58 2.06,-4.57 C2.06,-6.53 3.48,-7.92 5.33,-7.92 C7.17,-7.92 8.6,-6.56 8.6,-4.58 C8.6,-2.61 7.14,-1.24 5.33,-1.24z M5.33,-9.3 C2.71,-9.35 0.5,-7.15 0.55,-4.58 C0.5,-2 2.71,0.18 5.33,0.13 C7.95,0.18 10.16,-2 10.11,-4.58 C10.16,-7.15 7.95,-9.35 5.33,-9.3z"></path><g opacity="1" transform="matrix(0.12999999523162842,0,0,0.12999999523162842,0,0)"></g></g></g></g><g stroke-linecap="butt" stroke-linejoin="round" stroke-miterlimit="4" transform="matrix(1,0,0,1,27.7810001373291,15)" opacity="1" style="display: inherit;"><g><g transform="matrix(1,0,0,1,0,0)" opacity="1" style="display: block;"><path d=" M2.38,-5.17 C2.38,-5.17 2.38,-7.79 2.38,-7.79 C2.38,-7.79 5.2,-7.79 5.2,-7.79 C6.19,-7.79 6.77,-7.32 6.77,-6.48 C6.77,-5.64 6.19,-5.17 5.2,-5.17 C5.2,-5.17 2.38,-5.17 2.38,-5.17z M8.34,0 C8.34,0 8.34,-0.21 8.34,-0.21 C8.16,-0.41 8.04,-0.64 7.99,-0.89 C7.95,-1.15 7.91,-1.54 7.88,-2.08 C7.83,-3.25 7.33,-3.9 6.44,-4.25 C7.59,-4.66 8.27,-5.51 8.27,-6.68 C8.27,-8.08 7.17,-9.16 5.33,-9.16 C5.33,-9.16 0.94,-9.16 0.94,-9.16 C0.94,-9.16 0.94,0 0.94,0 C0.94,0 2.38,0 2.38,0 C2.38,0 2.38,-3.8 2.38,-3.8 C2.38,-3.8 4.61,-3.8 4.61,-3.8 C5.67,-3.8 6.24,-3.36 6.24,-2.09 C6.24,-1.49 6.27,-1.05 6.32,-0.76 C6.38,-0.48 6.45,-0.22 6.57,0 C6.57,0 8.34,0 8.34,0z"></path><g opacity="1" transform="matrix(0.12999999523162842,0,0,0.12999999523162842,0,0)"></g></g></g></g><g stroke-linecap="butt" stroke-linejoin="round" stroke-miterlimit="4" transform="matrix(1,0,0,1,36.63399887084961,15)" opacity="1" style="display: inherit;"><g><g transform="matrix(1,0,0,1,0,0)" opacity="1" style="display: block;"><path d=" M2.38,-7.86 C2.38,-7.86 4.41,-7.86 4.41,-7.86 C6.47,-7.86 7.55,-6.44 7.55,-4.52 C7.55,-2.78 6.44,-1.31 4.41,-1.31 C4.41,-1.31 2.38,-1.31 2.38,-1.31 C2.38,-1.31 2.38,-7.86 2.38,-7.86z M0.94,0 C0.94,0 4.41,0 4.41,0 C7.32,0 8.99,-1.92 8.99,-4.52 C8.99,-7.23 7.37,-9.16 4.41,-9.16 C4.41,-9.16 0.94,-9.16 0.94,-9.16 C0.94,-9.16 0.94,0 0.94,0z"></path><g opacity="1" transform="matrix(0.12999999523162842,0,0,0.12999999523162842,0,0)"></g></g></g></g><g stroke-linecap="butt" stroke-linejoin="round" stroke-miterlimit="4" transform="matrix(1,0,0,1,46.111000061035156,15)" opacity="1" style="display: inherit;"><g><g transform="matrix(1,0,0,1,0,0)" opacity="1" style="display: block;"><path d=" M0.94,-9.16 C0.94,-9.16 0.94,0 0.94,0 C0.94,0 7.75,0 7.75,0 C7.75,0 7.75,-1.37 7.75,-1.37 C7.75,-1.37 2.38,-1.37 2.38,-1.37 C2.38,-1.37 2.38,-4.06 2.38,-4.06 C2.38,-4.06 7.23,-4.06 7.23,-4.06 C7.23,-4.06 7.23,-5.43 7.23,-5.43 C7.23,-5.43 2.38,-5.43 2.38,-5.43 C2.38,-5.43 2.38,-7.79 2.38,-7.79 C2.38,-7.79 7.62,-7.79 7.62,-7.79 C7.62,-7.79 7.62,-9.16 7.62,-9.16 C7.62,-9.16 0.94,-9.16 0.94,-9.16z"></path><g opacity="1" transform="matrix(0.12999999523162842,0,0,0.12999999523162842,0,0)"></g></g></g></g><g stroke-linecap="butt" stroke-linejoin="round" stroke-miterlimit="4" transform="matrix(1,0,0,1,54.45699691772461,15)" opacity="1" style="display: inherit;"><g><g transform="matrix(1,0,0,1,0,0)" opacity="1" style="display: block;"><path d=" M2.38,-5.17 C2.38,-5.17 2.38,-7.79 2.38,-7.79 C2.38,-7.79 5.2,-7.79 5.2,-7.79 C6.19,-7.79 6.77,-7.32 6.77,-6.48 C6.77,-5.64 6.19,-5.17 5.2,-5.17 C5.2,-5.17 2.38,-5.17 2.38,-5.17z M8.34,0 C8.34,0 8.34,-0.21 8.34,-0.21 C8.16,-0.41 8.04,-0.64 7.99,-0.89 C7.95,-1.15 7.91,-1.54 7.88,-2.08 C7.83,-3.25 7.33,-3.9 6.44,-4.25 C7.59,-4.66 8.27,-5.51 8.27,-6.68 C8.27,-8.08 7.17,-9.16 5.33,-9.16 C5.33,-9.16 0.94,-9.16 0.94,-9.16 C0.94,-9.16 0.94,0 0.94,0 C0.94,0 2.38,0 2.38,0 C2.38,0 2.38,-3.8 2.38,-3.8 C2.38,-3.8 4.61,-3.8 4.61,-3.8 C5.67,-3.8 6.24,-3.36 6.24,-2.09 C6.24,-1.49 6.27,-1.05 6.32,-0.76 C6.38,-0.48 6.45,-0.22 6.57,0 C6.57,0 8.34,0 8.34,0z"></path><g opacity="1" transform="matrix(0.12999999523162842,0,0,0.12999999523162842,0,0)"></g></g></g></g></g><g transform="matrix(0.4000000059604645,0,0,0.4000000059604645,80,-45.70020294189453)" opacity="1" style="display: block;"><g opacity="1" transform="matrix(1,0,0,1,-150,264.25)"><path fill="#C4E8BF" fill-opacity="1" d=" M0,-25 C13.797499656677246,-25 25,-13.797499656677246 25,0 C25,13.797499656677246 13.797499656677246,25 0,25 C-13.797499656677246,25 -25,13.797499656677246 -25,0 C-25,-13.797499656677246 -13.797499656677246,-25 0,-25z"></path></g></g><g transform="matrix(0.4000000059604645,0,0,0.4000000059604645,80.2107925415039,-45.151397705078125)" opacity="1" style="display: block;"><g opacity="1" transform="matrix(1,0,0,1,0,0)"><path stroke-linecap="butt" stroke-linejoin="miter" fill-opacity="0" stroke-miterlimit="4" stroke="#000000" stroke-opacity="1" stroke-width="2px" d=" M-161,262.875 C-161,262.875 -153,271.25 -153,271.25 C-153,271.25 -135.625,252.75 -135.625,252.75"></path></g></g><g transform="matrix(0.4000000059604645,0,0,0.4000000059604645,80.21080017089844,-45.151405334472656)" opacity="1" style="display: block;"><g opacity="1" transform="matrix(1,0,0,1,0,0)"><path stroke-linecap="butt" stroke-linejoin="miter" fill-opacity="0" stroke-miterlimit="4" stroke="#000000" stroke-opacity="1" stroke-width="2px" d="M0 0"></path></g></g></g></svg>