<svg xmlns="http://www.w3.org/2000/svg" xmlns:xlink="http://www.w3.org/1999/xlink" viewBox="0 0 184 80" width="184" height="80" preserveAspectRatio="xMidYMid meet" style="width: 100%; height: 100%; transform: translate3d(0px, 0px, 0px); content-visibility: visible;"><defs><clipPath id="__lottie_element_2069"><rect width="184" height="80" x="0" y="0"></rect></clipPath><symbol id="__lottie_element_2080"><g><g transform="matrix(1,0,0,1,196,40)" opacity="1" style="display: block;"><g opacity="1" transform="matrix(1,0,0,1,-52,0)"><path fill="rgb(237,231,226)" fill-opacity="1" d=" M36,-28 C36,-28 36,28 36,28 C36,32.415199279785156 32.415199279785156,36 28,36 C28,36 -28,36 -28,36 C-32.415199279785156,36 -36,32.415199279785156 -36,28 C-36,28 -36,-28 -36,-28 C-36,-32.415199279785156 -32.415199279785156,-36 -28,-36 C-28,-36 28,-36 28,-36 C32.415199279785156,-36 36,-32.415199279785156 36,-28z"></path></g></g></g></symbol><mask id="__lottie_element_2080_1" mask-type="alpha"><use xlink:href="#__lottie_element_2080"></use></mask><symbol id="__lottie_element_2080"><g><g transform="matrix(1,0,0,1,196,40)" opacity="1" style="display: block;"><g opacity="1" transform="matrix(1,0,0,1,-52,0)"><path fill="rgb(237,231,226)" fill-opacity="1" d=" M36,-28 C36,-28 36,28 36,28 C36,32.415199279785156 32.415199279785156,36 28,36 C28,36 -28,36 -28,36 C-32.415199279785156,36 -36,32.415199279785156 -36,28 C-36,28 -36,-28 -36,-28 C-36,-32.415199279785156 -32.415199279785156,-36 -28,-36 C-28,-36 28,-36 28,-36 C32.415199279785156,-36 36,-32.415199279785156 36,-28z"></path></g></g></g></symbol></defs><g clip-path="url(#__lottie_element_2069)"><g transform="matrix(1,0,0,1,76.875,34.125)" opacity="1" style="display: block;"><g opacity="1" transform="matrix(1,0,0,1,15.125,5.875)"><path fill="#FFFFFF" fill-opacity="1" d=" M92,-28 C92,-28 92,28 92,28 C92,34.622798919677734 86.622802734375,40 80,40 C80,40 -80,40 -80,40 C-86.622802734375,40 -92,34.622798919677734 -92,28 C-92,28 -92,-28 -92,-28 C-92,-34.622798919677734 -86.622802734375,-40 -80,-40 C-80,-40 80,-40 80,-40 C86.622802734375,-40 92,-34.622798919677734 92,-28z"></path></g></g><g fill="rgb(0,0,0)" font-size="13" font-family="Mabry Pro" font-style="normal" font-weight="500" aria-label="PREVIOUSLY PURCHASED" transform="matrix(1,0,0,1,9.798999786376953,20.875)" opacity="1" style="display: block;"><g stroke-linecap="butt" stroke-linejoin="round" stroke-miterlimit="4" transform="matrix(1,0,0,1,0,0)" opacity="1" style="display: inherit;"><g><g transform="matrix(1,0,0,1,0,0)" opacity="1" style="display: block;"><path d=" M2.38,-5.04 C2.38,-5.04 2.38,-7.79 2.38,-7.79 C2.38,-7.79 5.07,-7.79 5.07,-7.79 C6,-7.79 6.64,-7.25 6.64,-6.42 C6.64,-5.58 6,-5.04 5.07,-5.04 C5.07,-5.04 2.38,-5.04 2.38,-5.04z M2.38,-3.67 C2.38,-3.67 5.2,-3.67 5.2,-3.67 C7.1,-3.67 8.14,-4.99 8.14,-6.42 C8.14,-7.89 7.11,-9.16 5.2,-9.16 C5.2,-9.16 0.94,-9.16 0.94,-9.16 C0.94,-9.16 0.94,0 0.94,0 C0.94,0 2.38,0 2.38,0 C2.38,0 2.38,-3.67 2.38,-3.67z"></path><g opacity="1" transform="matrix(0.12999999523162842,0,0,0.12999999523162842,0,0)"></g></g></g></g><g stroke-linecap="butt" stroke-linejoin="round" stroke-miterlimit="4" transform="matrix(1,0,0,1,8.657999992370605,0)" opacity="1" style="display: inherit;"><g><g transform="matrix(1,0,0,1,0,0)" opacity="1" style="display: block;"><path d=" M2.38,-5.17 C2.38,-5.17 2.38,-7.79 2.38,-7.79 C2.38,-7.79 5.2,-7.79 5.2,-7.79 C6.19,-7.79 6.77,-7.32 6.77,-6.48 C6.77,-5.64 6.19,-5.17 5.2,-5.17 C5.2,-5.17 2.38,-5.17 2.38,-5.17z M8.34,0 C8.34,0 8.34,-0.21 8.34,-0.21 C8.16,-0.41 8.04,-0.64 7.99,-0.89 C7.95,-1.15 7.91,-1.54 7.88,-2.08 C7.83,-3.25 7.33,-3.9 6.44,-4.25 C7.59,-4.66 8.27,-5.51 8.27,-6.68 C8.27,-8.08 7.17,-9.16 5.33,-9.16 C5.33,-9.16 0.94,-9.16 0.94,-9.16 C0.94,-9.16 0.94,0 0.94,0 C0.94,0 2.38,0 2.38,0 C2.38,0 2.38,-3.8 2.38,-3.8 C2.38,-3.8 4.61,-3.8 4.61,-3.8 C5.67,-3.8 6.24,-3.36 6.24,-2.09 C6.24,-1.49 6.27,-1.05 6.32,-0.76 C6.38,-0.48 6.45,-0.22 6.57,0 C6.57,0 8.34,0 8.34,0z"></path><g opacity="1" transform="matrix(0.12999999523162842,0,0,0.12999999523162842,0,0)"></g></g></g></g><g stroke-linecap="butt" stroke-linejoin="round" stroke-miterlimit="4" transform="matrix(1,0,0,1,17.51099967956543,0)" opacity="1" style="display: inherit;"><g><g transform="matrix(1,0,0,1,0,0)" opacity="1" style="display: block;"><path d=" M0.94,-9.16 C0.94,-9.16 0.94,0 0.94,0 C0.94,0 7.75,0 7.75,0 C7.75,0 7.75,-1.37 7.75,-1.37 C7.75,-1.37 2.38,-1.37 2.38,-1.37 C2.38,-1.37 2.38,-4.06 2.38,-4.06 C2.38,-4.06 7.23,-4.06 7.23,-4.06 C7.23,-4.06 7.23,-5.43 7.23,-5.43 C7.23,-5.43 2.38,-5.43 2.38,-5.43 C2.38,-5.43 2.38,-7.79 2.38,-7.79 C2.38,-7.79 7.62,-7.79 7.62,-7.79 C7.62,-7.79 7.62,-9.16 7.62,-9.16 C7.62,-9.16 0.94,-9.16 0.94,-9.16z"></path><g opacity="1" transform="matrix(0.12999999523162842,0,0,0.12999999523162842,0,0)"></g></g></g></g><g stroke-linecap="butt" stroke-linejoin="round" stroke-miterlimit="4" transform="matrix(1,0,0,1,25.85700035095215,0)" opacity="1" style="display: inherit;"><g><g transform="matrix(1,0,0,1,0,0)" opacity="1" style="display: block;"><path d=" M4.9,-1.17 C4.9,-1.17 1.75,-9.16 1.75,-9.16 C1.75,-9.16 0.13,-9.16 0.13,-9.16 C0.13,-9.16 3.9,0 3.9,0 C3.9,0 5.89,0 5.89,0 C5.89,0 9.66,-9.16 9.66,-9.16 C9.66,-9.16 8.04,-9.16 8.04,-9.16 C8.04,-9.16 4.9,-1.17 4.9,-1.17z"></path><g opacity="1" transform="matrix(0.12999999523162842,0,0,0.12999999523162842,0,0)"></g></g></g></g><g stroke-linecap="butt" stroke-linejoin="round" stroke-miterlimit="4" transform="matrix(1,0,0,1,35.73699951171875,0)" opacity="1" style="display: inherit;"><g><g transform="matrix(1,0,0,1,0,0)" opacity="1" style="display: block;"><path d=" M0.94,0 C0.94,0 2.38,0 2.38,0 C2.38,0 2.38,-9.16 2.38,-9.16 C2.38,-9.16 0.94,-9.16 0.94,-9.16 C0.94,-9.16 0.94,0 0.94,0z"></path><g opacity="1" transform="matrix(0.12999999523162842,0,0,0.12999999523162842,0,0)"></g></g></g></g><g stroke-linecap="butt" stroke-linejoin="round" stroke-miterlimit="4" transform="matrix(1,0,0,1,39.03900146484375,0)" opacity="1" style="display: inherit;"><g><g transform="matrix(1,0,0,1,0,0)" opacity="1" style="display: block;"><path d=" M5.33,-1.24 C3.52,-1.24 2.06,-2.58 2.06,-4.57 C2.06,-6.53 3.48,-7.92 5.33,-7.92 C7.17,-7.92 8.6,-6.56 8.6,-4.58 C8.6,-2.61 7.14,-1.24 5.33,-1.24z M5.33,-9.3 C2.71,-9.35 0.5,-7.15 0.55,-4.58 C0.5,-2 2.71,0.18 5.33,0.13 C7.95,0.18 10.16,-2 10.11,-4.58 C10.16,-7.15 7.95,-9.35 5.33,-9.3z"></path><g opacity="1" transform="matrix(0.12999999523162842,0,0,0.12999999523162842,0,0)"></g></g></g></g><g stroke-linecap="butt" stroke-linejoin="round" stroke-miterlimit="4" transform="matrix(1,0,0,1,49.62099838256836,0)" opacity="1" style="display: inherit;"><g><g transform="matrix(1,0,0,1,0,0)" opacity="1" style="display: block;"><path d=" M0.84,-9.16 C0.84,-9.16 0.84,-3.67 0.84,-3.67 C0.84,-1.41 2.33,0.13 4.66,0.13 C6.99,0.13 8.48,-1.41 8.48,-3.67 C8.48,-3.67 8.48,-9.16 8.48,-9.16 C8.48,-9.16 7.04,-9.16 7.04,-9.16 C7.04,-9.16 7.04,-3.74 7.04,-3.74 C7.04,-2.16 6.07,-1.24 4.66,-1.24 C3.25,-1.24 2.28,-2.16 2.28,-3.74 C2.28,-3.74 2.28,-9.16 2.28,-9.16 C2.28,-9.16 0.84,-9.16 0.84,-9.16z"></path><g opacity="1" transform="matrix(0.12999999523162842,0,0,0.12999999523162842,0,0)"></g></g></g></g><g stroke-linecap="butt" stroke-linejoin="round" stroke-miterlimit="4" transform="matrix(1,0,0,1,58.87699890136719,0)" opacity="1" style="display: inherit;"><g><g transform="matrix(1,0,0,1,0,0)" opacity="1" style="display: block;"><path d=" M4.11,-7.92 C5.25,-7.92 5.96,-7.33 6.21,-6.28 C6.21,-6.28 7.58,-7.07 7.58,-7.07 C7.07,-8.48 5.77,-9.3 4.24,-9.3 C2.33,-9.3 1.03,-8.14 1.03,-6.79 C1.03,-5.18 2.2,-4.36 4.31,-3.99 C5.88,-3.73 6.47,-3.29 6.47,-2.55 C6.47,-1.78 5.66,-1.24 4.41,-1.24 C3,-1.24 2.02,-2.06 1.69,-3.53 C1.69,-3.53 0.31,-2.68 0.31,-2.68 C0.64,-1.65 1.18,-0.93 1.94,-0.5 C2.71,-0.08 3.52,0.13 4.4,0.13 C6.52,0.13 7.97,-1.05 7.97,-2.62 C7.97,-4.08 6.93,-4.9 4.82,-5.3 C3.4,-5.58 2.47,-5.97 2.47,-6.81 C2.47,-7.44 3.12,-7.92 4.11,-7.92z"></path><g opacity="1" transform="matrix(0.12999999523162842,0,0,0.12999999523162842,0,0)"></g></g></g></g><g stroke-linecap="butt" stroke-linejoin="round" stroke-miterlimit="4" transform="matrix(1,0,0,1,67.2229995727539,0)" opacity="1" style="display: inherit;"><g><g transform="matrix(1,0,0,1,0,0)" opacity="1" style="display: block;"><path d=" M0.94,-9.16 C0.94,-9.16 0.94,0 0.94,0 C0.94,0 7.88,0 7.88,0 C7.88,0 7.88,-1.37 7.88,-1.37 C7.88,-1.37 2.38,-1.37 2.38,-1.37 C2.38,-1.37 2.38,-9.16 2.38,-9.16 C2.38,-9.16 0.94,-9.16 0.94,-9.16z"></path><g opacity="1" transform="matrix(0.12999999523162842,0,0,0.12999999523162842,0,0)"></g></g></g></g><g stroke-linecap="butt" stroke-linejoin="round" stroke-miterlimit="4" transform="matrix(1,0,0,1,75.56900024414062,0)" opacity="1" style="display: inherit;"><g><g transform="matrix(1,0,0,1,0,0)" opacity="1" style="display: block;"><path d=" M1.92,-9.16 C1.92,-9.16 0.16,-9.16 0.16,-9.16 C0.16,-9.16 3.82,-3.73 3.82,-3.73 C3.82,-3.73 3.82,0 3.82,0 C3.82,0 5.26,0 5.26,0 C5.26,0 5.26,-3.73 5.26,-3.73 C5.26,-3.73 8.93,-9.16 8.93,-9.16 C8.93,-9.16 7.29,-9.16 7.29,-9.16 C7.29,-9.16 4.54,-5 4.54,-5 C4.54,-5 1.92,-9.16 1.92,-9.16z"></path><g opacity="1" transform="matrix(0.12999999523162842,0,0,0.12999999523162842,0,0)"></g></g></g></g><g stroke-linecap="butt" stroke-linejoin="round" stroke-miterlimit="4" transform="matrix(1,0,0,1,84.59099578857422,0)" opacity="1" style="display: inherit;"><g><g style="display: none;"></g></g></g><g stroke-linecap="butt" stroke-linejoin="round" stroke-miterlimit="4" style="display: inherit;"><g><g style="display: none;"></g></g></g><g stroke-linecap="butt" stroke-linejoin="round" stroke-miterlimit="4" transform="matrix(1,0,0,1,0,15)" opacity="1" style="display: inherit;"><g><g transform="matrix(1,0,0,1,0,0)" opacity="1" style="display: block;"><path d=" M2.38,-5.04 C2.38,-5.04 2.38,-7.79 2.38,-7.79 C2.38,-7.79 5.07,-7.79 5.07,-7.79 C6,-7.79 6.64,-7.25 6.64,-6.42 C6.64,-5.58 6,-5.04 5.07,-5.04 C5.07,-5.04 2.38,-5.04 2.38,-5.04z M2.38,-3.67 C2.38,-3.67 5.2,-3.67 5.2,-3.67 C7.1,-3.67 8.14,-4.99 8.14,-6.42 C8.14,-7.89 7.11,-9.16 5.2,-9.16 C5.2,-9.16 0.94,-9.16 0.94,-9.16 C0.94,-9.16 0.94,0 0.94,0 C0.94,0 2.38,0 2.38,0 C2.38,0 2.38,-3.67 2.38,-3.67z"></path><g opacity="1" transform="matrix(0.12999999523162842,0,0,0.12999999523162842,0,0)"></g></g></g></g><g stroke-linecap="butt" stroke-linejoin="round" stroke-miterlimit="4" transform="matrix(1,0,0,1,8.657999992370605,15)" opacity="1" style="display: inherit;"><g><g transform="matrix(1,0,0,1,0,0)" opacity="1" style="display: block;"><path d=" M0.84,-9.16 C0.84,-9.16 0.84,-3.67 0.84,-3.67 C0.84,-1.41 2.33,0.13 4.66,0.13 C6.99,0.13 8.48,-1.41 8.48,-3.67 C8.48,-3.67 8.48,-9.16 8.48,-9.16 C8.48,-9.16 7.04,-9.16 7.04,-9.16 C7.04,-9.16 7.04,-3.74 7.04,-3.74 C7.04,-2.16 6.07,-1.24 4.66,-1.24 C3.25,-1.24 2.28,-2.16 2.28,-3.74 C2.28,-3.74 2.28,-9.16 2.28,-9.16 C2.28,-9.16 0.84,-9.16 0.84,-9.16z"></path><g opacity="1" transform="matrix(0.12999999523162842,0,0,0.12999999523162842,0,0)"></g></g></g></g><g stroke-linecap="butt" stroke-linejoin="round" stroke-miterlimit="4" transform="matrix(1,0,0,1,17.913999557495117,15)" opacity="1" style="display: inherit;"><g><g transform="matrix(1,0,0,1,0,0)" opacity="1" style="display: block;"><path d=" M2.38,-5.17 C2.38,-5.17 2.38,-7.79 2.38,-7.79 C2.38,-7.79 5.2,-7.79 5.2,-7.79 C6.19,-7.79 6.77,-7.32 6.77,-6.48 C6.77,-5.64 6.19,-5.17 5.2,-5.17 C5.2,-5.17 2.38,-5.17 2.38,-5.17z M8.34,0 C8.34,0 8.34,-0.21 8.34,-0.21 C8.16,-0.41 8.04,-0.64 7.99,-0.89 C7.95,-1.15 7.91,-1.54 7.88,-2.08 C7.83,-3.25 7.33,-3.9 6.44,-4.25 C7.59,-4.66 8.27,-5.51 8.27,-6.68 C8.27,-8.08 7.17,-9.16 5.33,-9.16 C5.33,-9.16 0.94,-9.16 0.94,-9.16 C0.94,-9.16 0.94,0 0.94,0 C0.94,0 2.38,0 2.38,0 C2.38,0 2.38,-3.8 2.38,-3.8 C2.38,-3.8 4.61,-3.8 4.61,-3.8 C5.67,-3.8 6.24,-3.36 6.24,-2.09 C6.24,-1.49 6.27,-1.05 6.32,-0.76 C6.38,-0.48 6.45,-0.22 6.57,0 C6.57,0 8.34,0 8.34,0z"></path><g opacity="1" transform="matrix(0.12999999523162842,0,0,0.12999999523162842,0,0)"></g></g></g></g><g stroke-linecap="butt" stroke-linejoin="round" stroke-miterlimit="4" transform="matrix(1,0,0,1,26.767000198364258,15)" opacity="1" style="display: inherit;"><g><g transform="matrix(1,0,0,1,0,0)" opacity="1" style="display: block;"><path d=" M2.06,-4.58 C2.06,-6.64 3.42,-7.99 5.2,-7.99 C6.76,-7.99 7.74,-7 8.01,-5.63 C8.01,-5.63 9.32,-6.22 9.32,-6.22 C8.9,-7.87 7.53,-9.3 5.2,-9.3 C2.59,-9.35 0.5,-7.21 0.55,-4.58 C0.52,-1.92 2.44,0.17 5.2,0.13 C7.71,0.13 9.37,-1.41 9.85,-3.53 C9.85,-3.53 8.54,-4.06 8.54,-4.06 C8.39,-3.23 8.04,-2.55 7.48,-2 C6.91,-1.45 6.15,-1.18 5.2,-1.18 C3.34,-1.18 2.06,-2.45 2.06,-4.58z"></path><g opacity="1" transform="matrix(0.12999999523162842,0,0,0.12999999523162842,0,0)"></g></g></g></g><g stroke-linecap="butt" stroke-linejoin="round" stroke-miterlimit="4" transform="matrix(1,0,0,1,36.95899963378906,15)" opacity="1" style="display: inherit;"><g><g transform="matrix(1,0,0,1,0,0)" opacity="1" style="display: block;"><path d=" M7.36,-3.86 C7.36,-3.86 7.36,0 7.36,0 C7.36,0 8.8,0 8.8,0 C8.8,0 8.8,-9.16 8.8,-9.16 C8.8,-9.16 7.36,-9.16 7.36,-9.16 C7.36,-9.16 7.36,-5.17 7.36,-5.17 C7.36,-5.17 2.38,-5.17 2.38,-5.17 C2.38,-5.17 2.38,-9.16 2.38,-9.16 C2.38,-9.16 0.94,-9.16 0.94,-9.16 C0.94,-9.16 0.94,0 0.94,0 C0.94,0 2.38,0 2.38,0 C2.38,0 2.38,-3.86 2.38,-3.86 C2.38,-3.86 7.36,-3.86 7.36,-3.86z"></path><g opacity="1" transform="matrix(0.12999999523162842,0,0,0.12999999523162842,0,0)"></g></g></g></g><g stroke-linecap="butt" stroke-linejoin="round" stroke-miterlimit="4" transform="matrix(1,0,0,1,46.63100051879883,15)" opacity="1" style="display: inherit;"><g><g transform="matrix(1,0,0,1,0,0)" opacity="1" style="display: block;"><path d=" M3.17,-3.53 C3.17,-3.53 4.92,-7.97 4.92,-7.97 C4.92,-7.97 6.68,-3.53 6.68,-3.53 C6.68,-3.53 3.17,-3.53 3.17,-3.53z M0.16,0 C0.16,0 1.78,0 1.78,0 C1.78,0 2.66,-2.23 2.66,-2.23 C2.66,-2.23 7.19,-2.23 7.19,-2.23 C7.19,-2.23 8.06,0 8.06,0 C8.06,0 9.69,0 9.69,0 C9.69,0 5.92,-9.16 5.92,-9.16 C5.92,-9.16 3.93,-9.16 3.93,-9.16 C3.93,-9.16 0.16,0 0.16,0z"></path><g opacity="1" transform="matrix(0.12999999523162842,0,0,0.12999999523162842,0,0)"></g></g></g></g><g stroke-linecap="butt" stroke-linejoin="round" stroke-miterlimit="4" transform="matrix(1,0,0,1,56.66699981689453,15)" opacity="1" style="display: inherit;"><g><g transform="matrix(1,0,0,1,0,0)" opacity="1" style="display: block;"><path d=" M4.11,-7.92 C5.25,-7.92 5.96,-7.33 6.21,-6.28 C6.21,-6.28 7.58,-7.07 7.58,-7.07 C7.07,-8.48 5.77,-9.3 4.24,-9.3 C2.33,-9.3 1.03,-8.14 1.03,-6.79 C1.03,-5.18 2.2,-4.36 4.31,-3.99 C5.88,-3.73 6.47,-3.29 6.47,-2.55 C6.47,-1.78 5.66,-1.24 4.41,-1.24 C3,-1.24 2.02,-2.06 1.69,-3.53 C1.69,-3.53 0.31,-2.68 0.31,-2.68 C0.64,-1.65 1.18,-0.93 1.94,-0.5 C2.71,-0.08 3.52,0.13 4.4,0.13 C6.52,0.13 7.97,-1.05 7.97,-2.62 C7.97,-4.08 6.93,-4.9 4.82,-5.3 C3.4,-5.58 2.47,-5.97 2.47,-6.81 C2.47,-7.44 3.12,-7.92 4.11,-7.92z"></path><g opacity="1" transform="matrix(0.12999999523162842,0,0,0.12999999523162842,0,0)"></g></g></g></g><g stroke-linecap="butt" stroke-linejoin="round" stroke-miterlimit="4" transform="matrix(1,0,0,1,65.01300048828125,15)" opacity="1" style="display: inherit;"><g><g transform="matrix(1,0,0,1,0,0)" opacity="1" style="display: block;"><path d=" M0.94,-9.16 C0.94,-9.16 0.94,0 0.94,0 C0.94,0 7.75,0 7.75,0 C7.75,0 7.75,-1.37 7.75,-1.37 C7.75,-1.37 2.38,-1.37 2.38,-1.37 C2.38,-1.37 2.38,-4.06 2.38,-4.06 C2.38,-4.06 7.23,-4.06 7.23,-4.06 C7.23,-4.06 7.23,-5.43 7.23,-5.43 C7.23,-5.43 2.38,-5.43 2.38,-5.43 C2.38,-5.43 2.38,-7.79 2.38,-7.79 C2.38,-7.79 7.62,-7.79 7.62,-7.79 C7.62,-7.79 7.62,-9.16 7.62,-9.16 C7.62,-9.16 0.94,-9.16 0.94,-9.16z"></path><g opacity="1" transform="matrix(0.12999999523162842,0,0,0.12999999523162842,0,0)"></g></g></g></g><g stroke-linecap="butt" stroke-linejoin="round" stroke-miterlimit="4" transform="matrix(1,0,0,1,73.35900115966797,15)" opacity="1" style="display: inherit;"><g><g transform="matrix(1,0,0,1,0,0)" opacity="1" style="display: block;"><path d=" M2.38,-7.86 C2.38,-7.86 4.41,-7.86 4.41,-7.86 C6.47,-7.86 7.55,-6.44 7.55,-4.52 C7.55,-2.78 6.44,-1.31 4.41,-1.31 C4.41,-1.31 2.38,-1.31 2.38,-1.31 C2.38,-1.31 2.38,-7.86 2.38,-7.86z M0.94,0 C0.94,0 4.41,0 4.41,0 C7.32,0 8.99,-1.92 8.99,-4.52 C8.99,-7.23 7.37,-9.16 4.41,-9.16 C4.41,-9.16 0.94,-9.16 0.94,-9.16 C0.94,-9.16 0.94,0 0.94,0z"></path><g opacity="1" transform="matrix(0.12999999523162842,0,0,0.12999999523162842,0,0)"></g></g></g></g></g><g transform="matrix(1,0,0,1,196,40)" opacity="1" style="display: block;"><g opacity="1" transform="matrix(1,0,0,1,-52,0)"><path fill="#EDE7E2" fill-opacity="1" d=" M36,-28 C36,-28 36,28 36,28 C36,32.415199279785156 32.415199279785156,36 28,36 C28,36 -28,36 -28,36 C-32.415199279785156,36 -36,32.415199279785156 -36,28 C-36,28 -36,-28 -36,-28 C-36,-32.415199279785156 -32.415199279785156,-36 -28,-36 C-28,-36 28,-36 28,-36 C32.415199279785156,-36 36,-32.415199279785156 36,-28z"></path></g></g><g mask="url(#__lottie_element_2080_1)" style="display: block;"><g transform="matrix(2,0,0,2,128,9.75)" opacity="1"><g opacity="1" transform="matrix(1,0,0,1,7.909999847412109,26.768999099731445)"><path fill="#EDE7E2" fill-opacity="1" d=" M6.017000198364258,12.232000350952148 C6.017000198364258,12.232000350952148 -6.017000198364258,12.232000350952148 -6.017000198364258,12.232000350952148 C-6.510000228881836,12.232000350952148 -6.909999847412109,11.82800006866455 -6.909999847412109,11.331000328063965 C-6.909999847412109,11.331000328063965 -6.909999847412109,-6.5229997634887695 -6.909999847412109,-6.5229997634887695 C-6.909999847412109,-9.675999641418457 -4.373000144958496,-12.232000350952148 -1.2419999837875366,-12.232000350952148 C-1.2419999837875366,-12.232000350952148 1.2400000095367432,-12.232000350952148 1.2400000095367432,-12.232000350952148 C4.370999813079834,-12.232000350952148 6.9079999923706055,-9.675999641418457 6.9079999923706055,-6.5229997634887695 C6.9079999923706055,-6.5229997634887695 6.9079999923706055,11.329000473022461 6.9079999923706055,11.329000473022461 C6.909999847412109,11.82800006866455 6.510000228881836,12.232000350952148 6.017000198364258,12.232000350952148z"></path><path stroke-linecap="round" stroke-linejoin="round" fill-opacity="0" stroke="#000000" stroke-opacity="1" stroke-width="0.5px" d=" M6.017000198364258,12.232000350952148 C6.017000198364258,12.232000350952148 -6.017000198364258,12.232000350952148 -6.017000198364258,12.232000350952148 C-6.510000228881836,12.232000350952148 -6.909999847412109,11.82800006866455 -6.909999847412109,11.331000328063965 C-6.909999847412109,11.331000328063965 -6.909999847412109,-6.5229997634887695 -6.909999847412109,-6.5229997634887695 C-6.909999847412109,-9.675999641418457 -4.373000144958496,-12.232000350952148 -1.2419999837875366,-12.232000350952148 C-1.2419999837875366,-12.232000350952148 1.2400000095367432,-12.232000350952148 1.2400000095367432,-12.232000350952148 C4.370999813079834,-12.232000350952148 6.9079999923706055,-9.675999641418457 6.9079999923706055,-6.5229997634887695 C6.9079999923706055,-6.5229997634887695 6.9079999923706055,11.329000473022461 6.9079999923706055,11.329000473022461 C6.909999847412109,11.82800006866455 6.510000228881836,12.232000350952148 6.017000198364258,12.232000350952148z"></path></g><g opacity="1" transform="matrix(1,0,0,1,7.909999847412109,8.335000038146973)"><path fill="#EDE7E2" fill-opacity="1" d=" M4.630000114440918,7.335000038146973 C4.630000114440918,7.335000038146973 -4.630000114440918,7.335000038146973 -4.630000114440918,7.335000038146973 C-4.630000114440918,7.335000038146973 -4.099999904632568,-7.335000038146973 -4.099999904632568,-7.335000038146973 C-4.099999904632568,-7.335000038146973 4.099999904632568,-7.335000038146973 4.099999904632568,-7.335000038146973 C4.099999904632568,-7.335000038146973 4.630000114440918,7.335000038146973 4.630000114440918,7.335000038146973z"></path><path stroke-linecap="round" stroke-linejoin="round" fill-opacity="0" stroke="#000000" stroke-opacity="1" stroke-width="0.5px" d=" M4.630000114440918,7.335000038146973 C4.630000114440918,7.335000038146973 -4.630000114440918,7.335000038146973 -4.630000114440918,7.335000038146973 C-4.630000114440918,7.335000038146973 -4.099999904632568,-7.335000038146973 -4.099999904632568,-7.335000038146973 C-4.099999904632568,-7.335000038146973 4.099999904632568,-7.335000038146973 4.099999904632568,-7.335000038146973 C4.099999904632568,-7.335000038146973 4.630000114440918,7.335000038146973 4.630000114440918,7.335000038146973z"></path></g><g opacity="1" transform="matrix(1,0,0,1,0,0)"><path stroke-linecap="round" stroke-linejoin="round" fill-opacity="0" stroke="#000000" stroke-opacity="1" stroke-width="0.5px" d=" M3.5239999294281006,14.154000282287598 C3.5239999294281006,14.154000282287598 12.293000221252441,14.154000282287598 12.293000221252441,14.154000282287598"></path></g><g opacity="1" transform="matrix(1,0,0,1,10.236000061035156,27.527999877929688)"><path fill="#EDE7E2" fill-opacity="1" d=" M4.580999851226807,-7.2829999923706055 C4.580999851226807,-7.2829999923706055 -4.580999851226807,-7.2829999923706055 -4.580999851226807,-7.2829999923706055 C-4.580999851226807,-7.2829999923706055 -4.580999851226807,7.2829999923706055 -4.580999851226807,7.2829999923706055 C-4.580999851226807,7.2829999923706055 4.580999851226807,7.2829999923706055 4.580999851226807,7.2829999923706055 C4.580999851226807,7.2829999923706055 4.580999851226807,-7.2829999923706055 4.580999851226807,-7.2829999923706055z"></path><path stroke-linecap="round" stroke-linejoin="round" fill-opacity="0" stroke="#000000" stroke-opacity="1" stroke-width="0.5px" d=" M4.580999851226807,-7.2829999923706055 C4.580999851226807,-7.2829999923706055 -4.580999851226807,-7.2829999923706055 -4.580999851226807,-7.2829999923706055 C-4.580999851226807,-7.2829999923706055 -4.580999851226807,7.2829999923706055 -4.580999851226807,7.2829999923706055 C-4.580999851226807,7.2829999923706055 4.580999851226807,7.2829999923706055 4.580999851226807,7.2829999923706055 C4.580999851226807,7.2829999923706055 4.580999851226807,-7.2829999923706055 4.580999851226807,-7.2829999923706055z"></path></g></g></g><g transform="matrix(0.4000000059604645,0,0,0.4000000059604645,80,-45.70020294189453)" opacity="1" style="display: block;"><g opacity="1" transform="matrix(1,0,0,1,-150,264.25)"><path fill="#C4E8BF" fill-opacity="1" d=" M0,-25 C13.797499656677246,-25 25,-13.797499656677246 25,0 C25,13.797499656677246 13.797499656677246,25 0,25 C-13.797499656677246,25 -25,13.797499656677246 -25,0 C-25,-13.797499656677246 -13.797499656677246,-25 0,-25z"></path></g></g><g transform="matrix(0.4000000059604645,0,0,0.4000000059604645,80.21080017089844,-45.151405334472656)" opacity="1" style="display: block;"><g opacity="1" transform="matrix(1,0,0,1,0,0)"><path stroke-linecap="butt" stroke-linejoin="miter" fill-opacity="0" stroke-miterlimit="4" stroke="#000000" stroke-opacity="1" stroke-width="2px" d="M0 0"></path></g></g><g transform="matrix(0.4000000059604645,0,0,0.4000000059604645,80.2107925415039,-45.151397705078125)" opacity="1" style="display: block;"><g opacity="1" transform="matrix(1,0,0,1,0,0)"><path stroke-linecap="butt" stroke-linejoin="miter" fill-opacity="0" stroke-miterlimit="4" stroke="#000000" stroke-opacity="1" stroke-width="2px" d=" M-161,262.875 C-161,262.875 -153,271.25 -153,271.25 C-153,271.25 -135.625,252.75 -135.625,252.75"></path></g></g></g></svg>