<svg xmlns:xlink="http://www.w3.org/1999/xlink" xmlns="http://www.w3.org/2000/svg" fill="none" viewBox="0 0 1638 130" class="footer_products__oL5BH" width="1638"  height="130" ><path fill="#F5FF7D" stroke="#000000" stroke-linecap="round" stroke-linejoin="round" stroke-miterlimit="10" d="M40.2 129H9.8c-4.9 0-8.8-4-8.8-8.7V51.7c0-4.9 4-8.8 8.8-8.8h30.4c4.9 0 8.8 4 8.8 8.8v68.6c0 4.8-4 8.7-8.8 8.7Z"></path><path fill="#F5FF7D" stroke="#000000" stroke-linecap="round" stroke-linejoin="round" stroke-miterlimit="10" d="M39.8 37.4H10.1V43h29.7v-5.5Zm-9.3-9H19.4v9h11.1v-9Z"></path><path fill="#F5FF7D" stroke="#000000" stroke-linecap="round" stroke-linejoin="round" stroke-miterlimit="10" d="M21.2 33h-1.8v4.4h1.8V33Zm1.8 0h-1.8v4.4h1.9V33Z"></path><path fill="#F5FF7D" stroke="#000000" stroke-linecap="round" stroke-linejoin="round" stroke-miterlimit="10" d="M25 33h-2v4.4h2V33Z"></path><path fill="#F5FF7D" stroke="#000000" stroke-linecap="round" stroke-linejoin="round" stroke-miterlimit="10" d="M26.8 33h-1.9v4.4h1.9V33Z"></path><path fill="#F5FF7D" stroke="#000000" stroke-linecap="round" stroke-linejoin="round" stroke-miterlimit="10" d="M28.7 33h-2v4.4h2V33Z"></path><path fill="#F5FF7D" stroke="#000000" stroke-linecap="round" stroke-linejoin="round" stroke-miterlimit="10" d="M30.5 33h-1.9v4.4h2V33Zm-4.1-10h-2.9v5.4h2.9V23Zm8.2-6H15.2v6h12.5c10 0 15.7-4 15.7-4v-2h-8.8ZM49 52.1H1v67.7h48V52.1Zm51.2 76.9H69.8c-4.9 0-8.8-4-8.8-8.7V51.7c0-4.9 4-8.8 8.8-8.8h30.4c4.9 0 8.8 4 8.8 8.8v68.6c0 4.8-4 8.7-8.8 8.7Z"></path><path fill="#F5FF7D" stroke="#000000" stroke-linecap="round" stroke-linejoin="round" stroke-miterlimit="10" d="M99.8 37.4H70.1V43h29.7v-5.5Zm-9.3-9H79.4v9h11.1v-9Z"></path><path fill="#F5FF7D" stroke="#000000" stroke-linecap="round" stroke-linejoin="round" stroke-miterlimit="10" d="M81.2 33h-1.8v4.4h1.8V33Zm1.8 0h-1.8v4.4h1.9V33Z"></path><path fill="#F5FF7D" stroke="#000000" stroke-linecap="round" stroke-linejoin="round" stroke-miterlimit="10" d="M85 33h-2v4.4h2V33Z"></path><path fill="#F5FF7D" stroke="#000000" stroke-linecap="round" stroke-linejoin="round" stroke-miterlimit="10" d="M86.8 33h-1.9v4.4h1.9V33Z"></path><path fill="#F5FF7D" stroke="#000000" stroke-linecap="round" stroke-linejoin="round" stroke-miterlimit="10" d="M88.7 33h-2v4.4h2V33Z"></path><path fill="#F5FF7D" stroke="#000000" stroke-linecap="round" stroke-linejoin="round" stroke-miterlimit="10" d="M90.5 33h-1.9v4.4h2V33Zm-4.1-10h-2.9v5.4h2.9V23Zm8.2-6H75.2v6h12.5c10 0 15.7-4 15.7-4v-2h-8.8ZM109 52.1H61v67.7h48V52.1Zm60 5.4h-48v63h48v-63Zm0 0h-48l6-6.3h36l6 6.3Zm-48 63h48l-6 6.3h-36l-6-6.3ZM163 49h-36v2.2h36V49Zm0 77.8h-36v2.2h36v-2.2Z"></path><path fill="#F5FF7D" stroke="#000000" stroke-miterlimit="10" d="M270.1 64.3C274.3 50.2 277 25 277 25h-96s2.7 25.2 6.9 39.3c4.1 14.1-5.4 45.8-5.4 64.7h93c0-18.9-9.5-50.6-5.4-64.7Z"></path><path stroke="#000000" stroke-linecap="round" stroke-linejoin="round" stroke-miterlimit="10" d="M187.3 39h83.6m-1.3 3.5h-81" fill="none"></path><path fill="#F5FF7D" stroke="#000000" stroke-linecap="round" stroke-linejoin="round" stroke-miterlimit="10" d="M229 34.4c1.3 0 2.3-1 2.3-2.2 0-1.2-1-2.2-2.2-2.2-1.2 0-2.2 1-2.2 2.2 0 1.2 1 2.2 2.2 2.2Z"></path><path fill="#F5FF7D" d="M190.9 48s1.7 9.4 3 14.2c1.6 5.5 2.5 10.5-.5 27.6-1.4 7.7-2.3 15-2.9 21a11 11 0 0 0 11.1 12H229"></path><path stroke="#000000" stroke-linecap="round" stroke-linejoin="round" stroke-miterlimit="10" d="M190.9 48s1.7 9.4 3 14.2c1.6 5.5 2.5 10.5-.5 27.6-1.4 7.7-2.3 15-2.9 21a11 11 0 0 0 11.1 12H229" fill="none"></path><path fill="#F5FF7D" d="M266.9 48s-1.8 9.4-3.1 14.2c-1.5 5.5-2.5 10.5.6 27.6 1.4 7.7 2.3 15 2.9 21a11 11 0 0 1-11.1 12h-27.3"></path><path stroke="#000000" stroke-linecap="round" stroke-linejoin="round" stroke-miterlimit="10" d="M266.9 48s-1.8 9.4-3.1 14.2c-1.5 5.5-2.5 10.5.6 27.6 1.4 7.7 2.3 15 2.9 21a11 11 0 0 1-11.1 12h-27.3" fill="none"></path><path fill="#F5FF7D" stroke="#000000" stroke-linecap="round" stroke-linejoin="round" stroke-miterlimit="10" d="M325.2 15.2v-3.4h-24.4v3.4c0 2.3-1 4.4-2.5 6C294.8 24.6 289 33 289 51v69.1c0 4.9 4 8.8 8.8 8.8h30.4c4.9 0 8.8-4 8.8-8.8v-69c0-18.1-5.8-26.5-9.3-30a8.3 8.3 0 0 1-2.5-5.9Zm.8-7h-26v3.6h26V8.2ZM324.3 1h-22.6c-1 0-1.7.7-1.7 1.7v5.5h26V2.7c0-1-.8-1.7-1.7-1.7Z"></path><path fill="#F5FF7D" stroke="#000000" stroke-linecap="round" stroke-linejoin="round" stroke-miterlimit="10" d="M337 51h-24v60.3h24V51Zm42 78h-28a2 2 0 0 1-2-2V85.5c0-7.3 5.9-13.3 13.1-13.3h5.8c7.2 0 13.1 6 13.1 13.3v41.3a2 2 0 0 1-2 2.1Z"></path><path fill="#F5FF7D" stroke="#000000" stroke-linecap="round" stroke-linejoin="round" stroke-miterlimit="10" d="M375.7 75h-21.4l1.2-34h19l1.2 34Z"></path><path stroke="#000000" stroke-linecap="round" stroke-linejoin="round" stroke-miterlimit="10" d="M354.3 72.3h21.3" fill="none"></path><path fill="#F5FF7D" stroke="#000000" stroke-linecap="round" stroke-linejoin="round" stroke-miterlimit="10" d="M381 85.6h-21.2v33.7H381V85.6Z"></path><path fill="#F5FF7D" stroke="#000000" stroke-miterlimit="10" d="M459.5 78.5h-65V129h65V78.5Zm-2.9-2.5h-59.2v2.5h59.2V76Zm4.4-11h-68v11h68V65Z"></path><path fill="#F5FF7D" stroke="#000000" stroke-linecap="round" stroke-linejoin="round" stroke-miterlimit="10" d="M512.2 129h-30.4c-4.9 0-8.8-4-8.8-8.7V51.7c0-4.9 4-8.8 8.8-8.8h30.4c4.9 0 8.8 4 8.8 8.8v68.6c0 4.8-4 8.7-8.8 8.7Z"></path><path fill="#F5FF7D" stroke="#000000" stroke-linecap="round" stroke-linejoin="round" stroke-miterlimit="10" d="M511.8 37.4h-29.7V43h29.7v-5.5Zm-9.3-9h-11.1v9h11.1v-9Z"></path><path fill="#F5FF7D" stroke="#000000" stroke-linecap="round" stroke-linejoin="round" stroke-miterlimit="10" d="M493.2 33h-1.8v4.4h1.8V33Zm1.8 0h-1.8v4.4h1.9V33Z"></path><path fill="#F5FF7D" stroke="#000000" stroke-linecap="round" stroke-linejoin="round" stroke-miterlimit="10" d="M497 33h-2v4.4h2V33Z"></path><path fill="#F5FF7D" stroke="#000000" stroke-linecap="round" stroke-linejoin="round" stroke-miterlimit="10" d="M498.8 33h-1.9v4.4h1.9V33Z"></path><path fill="#F5FF7D" stroke="#000000" stroke-linecap="round" stroke-linejoin="round" stroke-miterlimit="10" d="M500.7 33h-2v4.4h2V33Z"></path><path fill="#F5FF7D" stroke="#000000" stroke-linecap="round" stroke-linejoin="round" stroke-miterlimit="10" d="M502.5 33h-1.9v4.4h2V33Zm-4.1-10h-2.9v5.4h2.9V23Zm8.2-6h-19.4v6h12.5c10 0 15.7-4 15.7-4v-2h-8.8ZM521 52.1h-48v67.7h48V52.1Zm60 5.4h-48v63h48v-63Zm0 0h-48l6-6.3h36l6 6.3Zm-48 63h48l-6 6.3h-36l-6-6.3ZM575 49h-36v2.2h36V49Zm0 77.8h-36v2.2h36v-2.2Z"></path><path fill="#F5FF7D" stroke="#000000" stroke-miterlimit="10" d="M682.1 64.3C686.3 50.2 689 25 689 25h-96s2.7 25.2 6.9 39.3c4.1 14.1-5.4 45.8-5.4 64.7h93c0-18.9-9.5-50.6-5.4-64.7Z"></path><path stroke="#000000" stroke-linecap="round" stroke-linejoin="round" stroke-miterlimit="10" d="M599.3 39h83.6m-1.4 3.5h-80.9" fill="none"></path><path fill="#F5FF7D" stroke="#000000" stroke-linecap="round" stroke-linejoin="round" stroke-miterlimit="10" d="M641 34.4c1.3 0 2.3-1 2.3-2.2 0-1.2-1-2.2-2.2-2.2-1.2 0-2.2 1-2.2 2.2 0 1.2 1 2.2 2.2 2.2Z"></path><path fill="#F5FF7D" d="M602.9 48s1.7 9.4 3 14.2c1.6 5.5 2.5 10.5-.5 27.6-1.4 7.7-2.3 15-2.9 21a11 11 0 0 0 11.1 12H641"></path><path stroke="#000000" stroke-linecap="round" stroke-linejoin="round" stroke-miterlimit="10" d="M602.9 48s1.7 9.4 3 14.2c1.6 5.5 2.5 10.5-.5 27.6-1.4 7.7-2.3 15-2.9 21a11 11 0 0 0 11.1 12H641" fill="none"></path><path fill="#F5FF7D" d="M678.9 48s-1.8 9.4-3.1 14.2c-1.5 5.5-2.5 10.5.6 27.6 1.4 7.7 2.3 15 2.9 21a11 11 0 0 1-11.1 12h-27.3"></path><path stroke="#000000" stroke-linecap="round" stroke-linejoin="round" stroke-miterlimit="10" d="M678.9 48s-1.8 9.4-3.1 14.2c-1.5 5.5-2.5 10.5.6 27.6 1.4 7.7 2.3 15 2.9 21a11 11 0 0 1-11.1 12h-27.3" fill="none"></path><path fill="#F5FF7D" stroke="#000000" stroke-linecap="round" stroke-linejoin="round" stroke-miterlimit="10" d="M737.2 15.2v-3.4h-24.4v3.4c0 2.3-1 4.4-2.5 6C706.8 24.6 701 33 701 51v69.1c0 4.9 4 8.8 8.8 8.8h30.4c4.9 0 8.8-4 8.8-8.8v-69c0-18.1-5.8-26.5-9.3-30a8.3 8.3 0 0 1-2.5-5.9Zm.8-7h-26v3.6h26V8.2ZM736.3 1h-22.6c-1 0-1.7.7-1.7 1.7v5.5h26V2.7c0-1-.8-1.7-1.7-1.7Z"></path><path fill="#F5FF7D" stroke="#000000" stroke-linecap="round" stroke-linejoin="round" stroke-miterlimit="10" d="M749 51h-24v60.3h24V51Zm42 78h-28a2 2 0 0 1-2-2V85.5c0-7.3 5.9-13.3 13.1-13.3h5.8c7.2 0 13.1 6 13.1 13.3v41.3a2 2 0 0 1-2 2.1Z"></path><path fill="#F5FF7D" stroke="#000000" stroke-linecap="round" stroke-linejoin="round" stroke-miterlimit="10" d="M787.7 75h-21.4l1.2-34h19l1.2 34Z"></path><path stroke="#000000" stroke-linecap="round" stroke-linejoin="round" stroke-miterlimit="10" d="M766.3 72.3h21.3" fill="none"></path><path fill="#F5FF7D" stroke="#000000" stroke-linecap="round" stroke-linejoin="round" stroke-miterlimit="10" d="M793 85.6h-21.2v33.7H793V85.6Z"></path><path fill="#F5FF7D" stroke="#000000" stroke-miterlimit="10" d="M871.5 78.5h-65V129h65V78.5Zm-2.9-2.5h-59.2v2.5h59.2V76Zm4.4-11h-68v11h68V65Z"></path><path fill="#F5FF7D" stroke="#000000" stroke-linecap="round" stroke-linejoin="round" stroke-miterlimit="10" d="M933 57.5h-48v63h48v-63Zm0 0h-48l6-6.3h36l6 6.3Zm-48 63h48l-6 6.3h-36l-6-6.3ZM927 49h-36v2.2h36V49Zm0 77.8h-36v2.2h36v-2.2Z"></path><path fill="#F5FF7D" stroke="#000000" stroke-miterlimit="10" d="M1034.1 64.3c4.2-14.1 6.9-39.3 6.9-39.3h-96s2.7 25.2 6.9 39.3c4.1 14.1-5.4 45.8-5.4 64.7h93c0-18.9-9.5-50.6-5.4-64.7Z"></path><path stroke="#000000" stroke-linecap="round" stroke-linejoin="round" stroke-miterlimit="10" d="M951.3 39h83.6m-1.4 3.5h-80.9" fill="none"></path><path fill="#F5FF7D" stroke="#000000" stroke-linecap="round" stroke-linejoin="round" stroke-miterlimit="10" d="M993 34.4c1.3 0 2.3-1 2.3-2.2 0-1.2-1-2.2-2.2-2.2-1.2 0-2.2 1-2.2 2.2 0 1.2 1 2.2 2.2 2.2Z"></path><path fill="#F5FF7D" d="M954.9 48s1.7 9.4 3 14.2c1.6 5.5 2.5 10.5-.5 27.6-1.4 7.7-2.3 15-2.9 21a11 11 0 0 0 11.1 12H993"></path><path stroke="#000000" stroke-linecap="round" stroke-linejoin="round" stroke-miterlimit="10" d="M954.9 48s1.7 9.4 3 14.2c1.6 5.5 2.5 10.5-.5 27.6-1.4 7.7-2.3 15-2.9 21a11 11 0 0 0 11.1 12H993" fill="none"></path><path fill="#F5FF7D" d="M1030.9 48s-1.8 9.4-3.1 14.2c-1.5 5.5-2.5 10.5.6 27.6 1.4 7.7 2.3 15 2.9 21a11 11 0 0 1-11.1 12h-27.3"></path><path stroke="#000000" stroke-linecap="round" stroke-linejoin="round" stroke-miterlimit="10" d="M1030.9 48s-1.8 9.4-3.1 14.2c-1.5 5.5-2.5 10.5.6 27.6 1.4 7.7 2.3 15 2.9 21a11 11 0 0 1-11.1 12h-27.3" fill="none"></path><path fill="#F5FF7D" stroke="#000000" stroke-linecap="round" stroke-linejoin="round" stroke-miterlimit="10" d="M1089.2 15.2v-3.4h-24.4v3.4c0 2.3-1 4.4-2.5 6-3.5 3.4-9.3 11.8-9.3 29.9v69.1c0 4.9 4 8.8 8.8 8.8h30.4c4.9 0 8.8-4 8.8-8.8V51.1c0-18.1-5.8-26.5-9.3-30a8.3 8.3 0 0 1-2.5-5.9Zm.8-7h-26v3.6h26V8.2Zm-1.7-7.2h-22.6c-1 0-1.7.7-1.7 1.7v5.5h26V2.7c0-1-.8-1.7-1.7-1.7Z"></path><path fill="#F5FF7D" stroke="#000000" stroke-linecap="round" stroke-linejoin="round" stroke-miterlimit="10" d="M1101 51h-24v60.3h24V51Zm42 78h-28a2 2 0 0 1-2-2V85.5c0-7.3 5.9-13.3 13.1-13.3h5.8c7.2 0 13.1 6 13.1 13.3v41.3a2 2 0 0 1-2 2.1Z"></path><path fill="#F5FF7D" stroke="#000000" stroke-linecap="round" stroke-linejoin="round" stroke-miterlimit="10" d="M1139.7 75h-21.4l1.2-34h19l1.2 34Z"></path><path stroke="#000000" stroke-linecap="round" stroke-linejoin="round" stroke-miterlimit="10" d="M1118.3 72.3h21.3" fill="none"></path><path fill="#F5FF7D" stroke="#000000" stroke-linecap="round" stroke-linejoin="round" stroke-miterlimit="10" d="M1145 85.6h-21.2v33.7h21.2V85.6Z"></path><path fill="#F5FF7D" stroke="#000000" stroke-miterlimit="10" d="M1223.5 78.5h-65V129h65V78.5Zm-2.9-2.5h-59.2v2.5h59.2V76Zm4.4-11h-68v11h68V65Z"></path><path fill="#F5FF7D" stroke="#000000" stroke-linecap="round" stroke-linejoin="round" stroke-miterlimit="10" d="M1276.2 129h-30.4c-4.9 0-8.8-4-8.8-8.7V51.7c0-4.9 4-8.8 8.8-8.8h30.4c4.9 0 8.8 4 8.8 8.8v68.6c0 4.8-4 8.7-8.8 8.7Z"></path><path fill="#F5FF7D" stroke="#000000" stroke-linecap="round" stroke-linejoin="round" stroke-miterlimit="10" d="M1275.8 37.4h-29.7V43h29.7v-5.5Zm-9.3-9h-11.1v9h11.1v-9Z"></path><path fill="#F5FF7D" stroke="#000000" stroke-linecap="round" stroke-linejoin="round" stroke-miterlimit="10" d="M1257.2 33h-1.8v4.4h1.8V33Zm1.8 0h-1.8v4.4h1.9V33Z"></path><path fill="#F5FF7D" stroke="#000000" stroke-linecap="round" stroke-linejoin="round" stroke-miterlimit="10" d="M1261 33h-2v4.4h2V33Z"></path><path fill="#F5FF7D" stroke="#000000" stroke-linecap="round" stroke-linejoin="round" stroke-miterlimit="10" d="M1262.8 33h-1.9v4.4h1.9V33Z"></path><path fill="#F5FF7D" stroke="#000000" stroke-linecap="round" stroke-linejoin="round" stroke-miterlimit="10" d="M1264.7 33h-2v4.4h2V33Zm1.8 0h-1.8v4.4h1.8V33Zm-4.1-10h-2.9v5.4h2.9V23Zm8.2-6h-19.4v6h12.5c10 0 15.7-4 15.7-4v-2h-8.8Zm14.4 35.1h-48v67.7h48V52.1Zm60 5.4h-48v63h48v-63Zm0 0h-48l6-6.3h36l6 6.3Zm-48 63h48l-6 6.3h-36l-6-6.3Zm42-71.5h-36v2.2h36V49Zm0 77.8h-36v2.2h36v-2.2Z"></path><path fill="#F5FF7D" stroke="#000000" stroke-miterlimit="10" d="M1446.1 64.3c4.2-14.1 6.9-39.3 6.9-39.3h-96s2.7 25.2 6.9 39.3c4.1 14.1-5.4 45.8-5.4 64.7h93c0-18.9-9.5-50.6-5.4-64.7Z"></path><path stroke="#000000" stroke-linecap="round" stroke-linejoin="round" stroke-miterlimit="10" d="M1363.3 39h83.6m-1.4 3.5h-80.9" fill="none"></path><path fill="#F5FF7D" stroke="#000000" stroke-linecap="round" stroke-linejoin="round" stroke-miterlimit="10" d="M1405 34.4c1.3 0 2.3-1 2.3-2.2 0-1.2-1-2.2-2.2-2.2-1.2 0-2.2 1-2.2 2.2 0 1.2 1 2.2 2.2 2.2Z"></path><path fill="#F5FF7D" d="M1366.9 48s1.8 9.4 3 14.2c1.6 5.5 2.5 10.5-.5 27.6-1.4 7.7-2.3 15-2.9 21a11 11 0 0 0 11.1 12h27.3"></path><path stroke="#000000" stroke-linecap="round" stroke-linejoin="round" stroke-miterlimit="10" d="M1366.9 48s1.8 9.4 3 14.2c1.6 5.5 2.5 10.5-.5 27.6-1.4 7.7-2.3 15-2.9 21a11 11 0 0 0 11.1 12h27.3" fill="none"></path><path fill="#F5FF7D" d="M1442.9 48s-1.8 9.4-3.1 14.2c-1.5 5.5-2.5 10.5.6 27.6 1.4 7.7 2.3 15 2.9 21a11 11 0 0 1-11.1 12h-27.3"></path><path stroke="#000000" stroke-linecap="round" stroke-linejoin="round" stroke-miterlimit="10" d="M1442.9 48s-1.8 9.4-3.1 14.2c-1.5 5.5-2.5 10.5.6 27.6 1.4 7.7 2.3 15 2.9 21a11 11 0 0 1-11.1 12h-27.3" fill="none"></path><path fill="#F5FF7D" stroke="#000000" stroke-linecap="round" stroke-linejoin="round" stroke-miterlimit="10" d="M1501.2 15.2v-3.4h-24.4v3.4c0 2.3-1 4.4-2.5 6-3.5 3.4-9.3 11.8-9.3 29.9v69.1c0 4.9 4 8.8 8.8 8.8h30.4c4.9 0 8.8-4 8.8-8.8V51.1c0-18.1-5.8-26.5-9.3-30a8.3 8.3 0 0 1-2.5-5.9Zm.8-7h-26v3.6h26V8.2Zm-1.7-7.2h-22.6c-1 0-1.7.7-1.7 1.7v5.5h26V2.7c0-1-.8-1.7-1.7-1.7Z"></path><path fill="#F5FF7D" stroke="#000000" stroke-linecap="round" stroke-linejoin="round" stroke-miterlimit="10" d="M1513 51h-24v60.3h24V51Zm42 78h-28a2 2 0 0 1-2-2V85.5c0-7.3 5.9-13.3 13.1-13.3h5.8c7.2 0 13.1 6 13.1 13.3v41.3a2 2 0 0 1-2 2.1Z"></path><path fill="#F5FF7D" stroke="#000000" stroke-linecap="round" stroke-linejoin="round" stroke-miterlimit="10" d="M1551.7 75h-21.4l1.2-34h19l1.2 34Z"></path><path stroke="#000000" stroke-linecap="round" stroke-linejoin="round" stroke-miterlimit="10" d="M1530.3 72.3h21.3" fill="none"></path><path fill="#F5FF7D" stroke="#000000" stroke-linecap="round" stroke-linejoin="round" stroke-miterlimit="10" d="M1557 85.6h-21.2v33.7h21.2V85.6Z"></path><path fill="#F5FF7D" stroke="#000000" stroke-miterlimit="10" d="M1635.5 78.5h-65V129h65V78.5Zm-2.9-2.5h-59.2v2.5h59.2V76Zm4.4-11h-68v11h68V65Z"></path></svg>