<svg xmlns="http://www.w3.org/2000/svg" xmlns:xlink="http://www.w3.org/1999/xlink" viewBox="0 0 184 80" width="184" height="80" preserveAspectRatio="xMidYMid meet" style="width: 100%; height: 100%; transform: translate3d(0px, 0px, 0px); content-visibility: visible;"><defs><clipPath id="__lottie_element_1979"><rect width="184" height="80" x="0" y="0"></rect></clipPath><symbol id="__lottie_element_1993"><g><g transform="matrix(1,0,0,1,196,40)" opacity="1" style="display: block;"><g opacity="1" transform="matrix(1,0,0,1,-52,0)"><path fill="rgb(237,231,226)" fill-opacity="1" d=" M36,-28 C36,-28 36,28 36,28 C36,32.415199279785156 32.415199279785156,36 28,36 C28,36 -28,36 -28,36 C-32.415199279785156,36 -36,32.415199279785156 -36,28 C-36,28 -36,-28 -36,-28 C-36,-32.415199279785156 -32.415199279785156,-36 -28,-36 C-28,-36 28,-36 28,-36 C32.415199279785156,-36 36,-32.415199279785156 36,-28z"></path></g></g></g></symbol><mask id="__lottie_element_1993_1" mask-type="alpha"><use xlink:href="#__lottie_element_1993"></use></mask><symbol id="__lottie_element_1993"><g><g transform="matrix(1,0,0,1,196,40)" opacity="1" style="display: block;"><g opacity="1" transform="matrix(1,0,0,1,-52,0)"><path fill="rgb(237,231,226)" fill-opacity="1" d=" M36,-28 C36,-28 36,28 36,28 C36,32.415199279785156 32.415199279785156,36 28,36 C28,36 -28,36 -28,36 C-32.415199279785156,36 -36,32.415199279785156 -36,28 C-36,28 -36,-28 -36,-28 C-36,-32.415199279785156 -32.415199279785156,-36 -28,-36 C-28,-36 28,-36 28,-36 C32.415199279785156,-36 36,-32.415199279785156 36,-28z"></path></g></g></g></symbol></defs><g clip-path="url(#__lottie_element_1979)"><g transform="matrix(1,0,0,1,76.875,34.125)" opacity="1" style="display: block;"><g opacity="1" transform="matrix(1,0,0,1,15.125,5.875)"><path fill="#FFFFFF" fill-opacity="1" d=" M92,-28 C92,-28 92,28 92,28 C92,34.622798919677734 86.622802734375,40 80,40 C80,40 -80,40 -80,40 C-86.622802734375,40 -92,34.622798919677734 -92,28 C-92,28 -92,-28 -92,-28 C-92,-34.622798919677734 -86.622802734375,-40 -80,-40 C-80,-40 80,-40 80,-40 C86.622802734375,-40 92,-34.622798919677734 92,-28z"></path></g></g><g transform="matrix(1,0,0,1,196,40)" opacity="1" style="display: block;"><g opacity="1" transform="matrix(1,0,0,1,-52,0)"><path fill="#EDE7E2" fill-opacity="1" d=" M36,-28 C36,-28 36,28 36,28 C36,32.415199279785156 32.415199279785156,36 28,36 C28,36 -28,36 -28,36 C-32.415199279785156,36 -36,32.415199279785156 -36,28 C-36,28 -36,-28 -36,-28 C-36,-32.415199279785156 -32.415199279785156,-36 -28,-36 C-28,-36 28,-36 28,-36 C32.415199279785156,-36 36,-32.415199279785156 36,-28z"></path></g></g><g mask="url(#__lottie_element_1993_1)" style="display: block;"><g transform="matrix(1,0,0,1,119,15)" opacity="1"><g opacity="1" transform="matrix(1,0,0,1,25,45.9640007019043)"><path fill="#EDE7E2" fill-opacity="1" d=" M15.204000473022461,67.03600311279297 C15.204000473022461,67.03600311279297 -15.210000038146973,67.03600311279297 -15.210000038146973,67.03600311279297 C-20.065000534057617,67.03600311279297 -24,63.125999450683594 -24,58.30099868774414 C-24,58.30099868774414 -24,-10.300999641418457 -24,-10.300999641418457 C-24,-15.125 -20.065000534057617,-19.035999298095703 -15.210000038146973,-19.035999298095703 C-15.210000038146973,-19.035999298095703 15.210000038146973,-19.035999298095703 15.210000038146973,-19.035999298095703 C20.065000534057617,-19.035999298095703 24,-15.125 24,-10.300999641418457 C24,-10.300999641418457 24,58.30699920654297 24,58.30699920654297 C23.993999481201172,63.125 20.05900001525879,67.03600311279297 15.204000473022461,67.03600311279297z"></path></g><g opacity="1" transform="matrix(1,0,0,1,25,69.96399688720703)"><path stroke-linecap="round" stroke-linejoin="round" fill-opacity="0" stroke="#000000" stroke-opacity="1" stroke-width="1" d=" M15.204000473022461,43.0359992980957 C15.204000473022461,43.0359992980957 -15.210000038146973,43.0359992980957 -15.210000038146973,43.0359992980957 C-20.065000534057617,43.0359992980957 -24,39.125999450683594 -24,34.30099868774414 C-24,34.30099868774414 -24,-34.30099868774414 -24,-34.30099868774414 C-24,-39.125 -20.065000534057617,-43.0359992980957 -15.210000038146973,-43.0359992980957 C-15.210000038146973,-43.0359992980957 15.210000038146973,-43.0359992980957 15.210000038146973,-43.0359992980957 C20.065000534057617,-43.0359992980957 24,-39.125 24,-34.30099868774414 C24,-34.30099868774414 24,34.30699920654297 24,34.30699920654297 C23.993999481201172,39.125 20.05900001525879,43.0359992980957 15.204000473022461,43.0359992980957z"></path></g><g opacity="1" transform="matrix(1,0,0,1,24.93400001525879,24.179000854492188)"><path fill="#EDE7E2" fill-opacity="1" d=" M14.878000259399414,-2.755000114440918 C14.878000259399414,-2.755000114440918 -14.878000259399414,-2.755000114440918 -14.878000259399414,-2.755000114440918 C-14.878000259399414,-2.755000114440918 -14.878000259399414,2.755000114440918 -14.878000259399414,2.755000114440918 C-14.878000259399414,2.755000114440918 14.878000259399414,2.755000114440918 14.878000259399414,2.755000114440918 C14.878000259399414,2.755000114440918 14.878000259399414,-2.755000114440918 14.878000259399414,-2.755000114440918z"></path><path stroke-linecap="round" stroke-linejoin="round" fill-opacity="0" stroke="#000000" stroke-opacity="1" stroke-width="1" d=" M14.878000259399414,-2.755000114440918 C14.878000259399414,-2.755000114440918 -14.878000259399414,-2.755000114440918 -14.878000259399414,-2.755000114440918 C-14.878000259399414,-2.755000114440918 -14.878000259399414,2.755000114440918 -14.878000259399414,2.755000114440918 C-14.878000259399414,2.755000114440918 14.878000259399414,2.755000114440918 14.878000259399414,2.755000114440918 C14.878000259399414,2.755000114440918 14.878000259399414,-2.755000114440918 14.878000259399414,-2.755000114440918z"></path></g><g opacity="1" transform="matrix(1,0,0,1,24.93400001525879,16.90999984741211)"><path fill="#EDE7E2" fill-opacity="1" d=" M5.573999881744385,-4.513999938964844 C5.573999881744385,-4.513999938964844 -5.573999881744385,-4.513999938964844 -5.573999881744385,-4.513999938964844 C-5.573999881744385,-4.513999938964844 -5.573999881744385,4.513999938964844 -5.573999881744385,4.513999938964844 C-5.573999881744385,4.513999938964844 5.573999881744385,4.513999938964844 5.573999881744385,4.513999938964844 C5.573999881744385,4.513999938964844 5.573999881744385,-4.513999938964844 5.573999881744385,-4.513999938964844z"></path><path stroke-linecap="round" stroke-linejoin="round" fill-opacity="0" stroke="#000000" stroke-opacity="1" stroke-width="1" d=" M5.573999881744385,-4.513999938964844 C5.573999881744385,-4.513999938964844 -5.573999881744385,-4.513999938964844 -5.573999881744385,-4.513999938964844 C-5.573999881744385,-4.513999938964844 -5.573999881744385,4.513999938964844 -5.573999881744385,4.513999938964844 C-5.573999881744385,4.513999938964844 5.573999881744385,4.513999938964844 5.573999881744385,4.513999938964844 C5.573999881744385,4.513999938964844 5.573999881744385,-4.513999938964844 5.573999881744385,-4.513999938964844z"></path></g><g opacity="1" transform="matrix(1,0,0,1,20.291000366210938,19.16699981689453)"><path fill="#EDE7E2" fill-opacity="1" d=" M0.9300000071525574,-2.256999969482422 C0.9300000071525574,-2.256999969482422 -0.9300000071525574,-2.256999969482422 -0.9300000071525574,-2.256999969482422 C-0.9300000071525574,-2.256999969482422 -0.9300000071525574,2.256999969482422 -0.9300000071525574,2.256999969482422 C-0.9300000071525574,2.256999969482422 0.9300000071525574,2.256999969482422 0.9300000071525574,2.256999969482422 C0.9300000071525574,2.256999969482422 0.9300000071525574,-2.256999969482422 0.9300000071525574,-2.256999969482422z"></path><path stroke-linecap="round" stroke-linejoin="round" fill-opacity="0" stroke="#000000" stroke-opacity="1" stroke-width="1" d=" M0.9300000071525574,-2.256999969482422 C0.9300000071525574,-2.256999969482422 -0.9300000071525574,-2.256999969482422 -0.9300000071525574,-2.256999969482422 C-0.9300000071525574,-2.256999969482422 -0.9300000071525574,2.256999969482422 -0.9300000071525574,2.256999969482422 C-0.9300000071525574,2.256999969482422 0.9300000071525574,2.256999969482422 0.9300000071525574,2.256999969482422 C0.9300000071525574,2.256999969482422 0.9300000071525574,-2.256999969482422 0.9300000071525574,-2.256999969482422z"></path></g><g opacity="1" transform="matrix(1,0,0,1,22.145999908447266,19.16699981689453)"><path fill="#EDE7E2" fill-opacity="1" d=" M0.9300000071525574,-2.256999969482422 C0.9300000071525574,-2.256999969482422 -0.9300000071525574,-2.256999969482422 -0.9300000071525574,-2.256999969482422 C-0.9300000071525574,-2.256999969482422 -0.9300000071525574,2.256999969482422 -0.9300000071525574,2.256999969482422 C-0.9300000071525574,2.256999969482422 0.9300000071525574,2.256999969482422 0.9300000071525574,2.256999969482422 C0.9300000071525574,2.256999969482422 0.9300000071525574,-2.256999969482422 0.9300000071525574,-2.256999969482422z"></path><path stroke-linecap="round" stroke-linejoin="round" fill-opacity="0" stroke="#000000" stroke-opacity="1" stroke-width="1" d=" M0.9300000071525574,-2.256999969482422 C0.9300000071525574,-2.256999969482422 -0.9300000071525574,-2.256999969482422 -0.9300000071525574,-2.256999969482422 C-0.9300000071525574,-2.256999969482422 -0.9300000071525574,2.256999969482422 -0.9300000071525574,2.256999969482422 C-0.9300000071525574,2.256999969482422 0.9300000071525574,2.256999969482422 0.9300000071525574,2.256999969482422 C0.9300000071525574,2.256999969482422 0.9300000071525574,-2.256999969482422 0.9300000071525574,-2.256999969482422z"></path></g><g opacity="1" transform="matrix(1,0,0,1,24.009000778198242,19.16699981689453)"><path fill="#EDE7E2" fill-opacity="1" d=" M0.9300000071525574,-2.256999969482422 C0.9300000071525574,-2.256999969482422 -0.9300000071525574,-2.256999969482422 -0.9300000071525574,-2.256999969482422 C-0.9300000071525574,-2.256999969482422 -0.9300000071525574,2.256999969482422 -0.9300000071525574,2.256999969482422 C-0.9300000071525574,2.256999969482422 0.9300000071525574,2.256999969482422 0.9300000071525574,2.256999969482422 C0.9300000071525574,2.256999969482422 0.9300000071525574,-2.256999969482422 0.9300000071525574,-2.256999969482422z"></path><path stroke-linecap="round" stroke-linejoin="round" fill-opacity="0" stroke="#000000" stroke-opacity="1" stroke-width="1" d=" M0.9300000071525574,-2.256999969482422 C0.9300000071525574,-2.256999969482422 -0.9300000071525574,-2.256999969482422 -0.9300000071525574,-2.256999969482422 C-0.9300000071525574,-2.256999969482422 -0.9300000071525574,2.256999969482422 -0.9300000071525574,2.256999969482422 C-0.9300000071525574,2.256999969482422 0.9300000071525574,2.256999969482422 0.9300000071525574,2.256999969482422 C0.9300000071525574,2.256999969482422 0.9300000071525574,-2.256999969482422 0.9300000071525574,-2.256999969482422z"></path></g><g opacity="1" transform="matrix(1,0,0,1,25.86199951171875,19.16699981689453)"><path fill="#EDE7E2" fill-opacity="1" d=" M0.9300000071525574,-2.256999969482422 C0.9300000071525574,-2.256999969482422 -0.9300000071525574,-2.256999969482422 -0.9300000071525574,-2.256999969482422 C-0.9300000071525574,-2.256999969482422 -0.9300000071525574,2.256999969482422 -0.9300000071525574,2.256999969482422 C-0.9300000071525574,2.256999969482422 0.9300000071525574,2.256999969482422 0.9300000071525574,2.256999969482422 C0.9300000071525574,2.256999969482422 0.9300000071525574,-2.256999969482422 0.9300000071525574,-2.256999969482422z"></path><path stroke-linecap="round" stroke-linejoin="round" fill-opacity="0" stroke="#000000" stroke-opacity="1" stroke-width="1" d=" M0.9300000071525574,-2.256999969482422 C0.9300000071525574,-2.256999969482422 -0.9300000071525574,-2.256999969482422 -0.9300000071525574,-2.256999969482422 C-0.9300000071525574,-2.256999969482422 -0.9300000071525574,2.256999969482422 -0.9300000071525574,2.256999969482422 C-0.9300000071525574,2.256999969482422 0.9300000071525574,2.256999969482422 0.9300000071525574,2.256999969482422 C0.9300000071525574,2.256999969482422 0.9300000071525574,-2.256999969482422 0.9300000071525574,-2.256999969482422z"></path></g><g opacity="1" transform="matrix(1,0,0,1,27.722000122070312,19.16699981689453)"><path fill="#EDE7E2" fill-opacity="1" d=" M0.9300000071525574,-2.256999969482422 C0.9300000071525574,-2.256999969482422 -0.9300000071525574,-2.256999969482422 -0.9300000071525574,-2.256999969482422 C-0.9300000071525574,-2.256999969482422 -0.9300000071525574,2.256999969482422 -0.9300000071525574,2.256999969482422 C-0.9300000071525574,2.256999969482422 0.9300000071525574,2.256999969482422 0.9300000071525574,2.256999969482422 C0.9300000071525574,2.256999969482422 0.9300000071525574,-2.256999969482422 0.9300000071525574,-2.256999969482422z"></path><path stroke-linecap="round" stroke-linejoin="round" fill-opacity="0" stroke="#000000" stroke-opacity="1" stroke-width="1" d=" M0.9300000071525574,-2.256999969482422 C0.9300000071525574,-2.256999969482422 -0.9300000071525574,-2.256999969482422 -0.9300000071525574,-2.256999969482422 C-0.9300000071525574,-2.256999969482422 -0.9300000071525574,2.256999969482422 -0.9300000071525574,2.256999969482422 C-0.9300000071525574,2.256999969482422 0.9300000071525574,2.256999969482422 0.9300000071525574,2.256999969482422 C0.9300000071525574,2.256999969482422 0.9300000071525574,-2.256999969482422 0.9300000071525574,-2.256999969482422z"></path></g><g opacity="1" transform="matrix(1,0,0,1,29.57699966430664,19.16699981689453)"><path fill="#EDE7E2" fill-opacity="1" d=" M0.9300000071525574,-2.256999969482422 C0.9300000071525574,-2.256999969482422 -0.9300000071525574,-2.256999969482422 -0.9300000071525574,-2.256999969482422 C-0.9300000071525574,-2.256999969482422 -0.9300000071525574,2.256999969482422 -0.9300000071525574,2.256999969482422 C-0.9300000071525574,2.256999969482422 0.9300000071525574,2.256999969482422 0.9300000071525574,2.256999969482422 C0.9300000071525574,2.256999969482422 0.9300000071525574,-2.256999969482422 0.9300000071525574,-2.256999969482422z"></path><path stroke-linecap="round" stroke-linejoin="round" fill-opacity="0" stroke="#000000" stroke-opacity="1" stroke-width="1" d=" M0.9300000071525574,-2.256999969482422 C0.9300000071525574,-2.256999969482422 -0.9300000071525574,-2.256999969482422 -0.9300000071525574,-2.256999969482422 C-0.9300000071525574,-2.256999969482422 -0.9300000071525574,2.256999969482422 -0.9300000071525574,2.256999969482422 C-0.9300000071525574,2.256999969482422 0.9300000071525574,2.256999969482422 0.9300000071525574,2.256999969482422 C0.9300000071525574,2.256999969482422 0.9300000071525574,-2.256999969482422 0.9300000071525574,-2.256999969482422z"></path></g><g opacity="1" transform="matrix(1,0,0,1,24.93400001525879,9.706999778747559)"><path fill="#EDE7E2" fill-opacity="1" d=" M1.437999963760376,-2.694999933242798 C1.437999963760376,-2.694999933242798 -1.437999963760376,-2.694999933242798 -1.437999963760376,-2.694999933242798 C-1.437999963760376,-2.694999933242798 -1.437999963760376,2.694999933242798 -1.437999963760376,2.694999933242798 C-1.437999963760376,2.694999933242798 1.437999963760376,2.694999933242798 1.437999963760376,2.694999933242798 C1.437999963760376,2.694999933242798 1.437999963760376,-2.694999933242798 1.437999963760376,-2.694999933242798z"></path><path stroke-linecap="round" stroke-linejoin="round" fill-opacity="0" stroke="#000000" stroke-opacity="1" stroke-width="1" d=" M1.437999963760376,-2.694999933242798 C1.437999963760376,-2.694999933242798 -1.437999963760376,-2.694999933242798 -1.437999963760376,-2.694999933242798 C-1.437999963760376,-2.694999933242798 -1.437999963760376,2.694999933242798 -1.437999963760376,2.694999933242798 C-1.437999963760376,2.694999933242798 1.437999963760376,2.694999933242798 1.437999963760376,2.694999933242798 C1.437999963760376,2.694999933242798 1.437999963760376,-2.694999933242798 1.437999963760376,-2.694999933242798z"></path></g><g opacity="1" transform="matrix(1,0,0,1,29.31399917602539,4.00600004196167)"><path fill="#EDE7E2" fill-opacity="1" d=" M5.330999851226807,-3.00600004196167 C5.330999851226807,-3.00600004196167 -2.947999954223633,-3.00600004196167 -2.947999954223633,-3.00600004196167 C-2.947999954223633,-3.00600004196167 -14.095000267028809,-3.00600004196167 -14.095000267028809,-3.00600004196167 C-14.095000267028809,-3.00600004196167 -14.095000267028809,3.00600004196167 -14.095000267028809,3.00600004196167 C-14.095000267028809,3.00600004196167 -1.5679999589920044,3.00600004196167 -1.5679999589920044,3.00600004196167 C8.428999900817871,3.00600004196167 14.095000267028809,-0.9620000123977661 14.095000267028809,-0.9620000123977661 C14.095000267028809,-0.9620000123977661 14.095000267028809,-3.00600004196167 14.095000267028809,-3.00600004196167 C14.095000267028809,-3.00600004196167 5.330999851226807,-3.00600004196167 5.330999851226807,-3.00600004196167z"></path><path stroke-linecap="round" stroke-linejoin="round" fill-opacity="0" stroke="#000000" stroke-opacity="1" stroke-width="1" d=" M5.330999851226807,-3.00600004196167 C5.330999851226807,-3.00600004196167 -2.947999954223633,-3.00600004196167 -2.947999954223633,-3.00600004196167 C-2.947999954223633,-3.00600004196167 -14.095000267028809,-3.00600004196167 -14.095000267028809,-3.00600004196167 C-14.095000267028809,-3.00600004196167 -14.095000267028809,3.00600004196167 -14.095000267028809,3.00600004196167 C-14.095000267028809,3.00600004196167 -1.5679999589920044,3.00600004196167 -1.5679999589920044,3.00600004196167 C8.428999900817871,3.00600004196167 14.095000267028809,-0.9620000123977661 14.095000267028809,-0.9620000123977661 C14.095000267028809,-0.9620000123977661 14.095000267028809,-3.00600004196167 14.095000267028809,-3.00600004196167 C14.095000267028809,-3.00600004196167 5.330999851226807,-3.00600004196167 5.330999851226807,-3.00600004196167z"></path></g><g opacity="1" transform="matrix(1,0,0,1,24.996999740600586,50.55400085449219)"><path fill="#EDE7E2" fill-opacity="1" d=" M23.996999740600586,-14.446999549865723 C23.996999740600586,-14.446999549865723 -23.996999740600586,-14.446999549865723 -23.996999740600586,-14.446999549865723 C-23.996999740600586,-14.446999549865723 -23.996999740600586,53.2599983215332 -23.996999740600586,53.2599983215332 C-23.996999740600586,53.2599983215332 23.996999740600586,53.2599983215332 23.996999740600586,53.2599983215332 C23.996999740600586,53.2599983215332 23.996999740600586,-14.446999549865723 23.996999740600586,-14.446999549865723z"></path></g><g opacity="1" transform="matrix(1,0,0,1,24.996999740600586,69.96099853515625)"><path stroke-linecap="round" stroke-linejoin="round" fill-opacity="0" stroke="#000000" stroke-opacity="1" stroke-width="1" d=" M23.996999740600586,-33.854000091552734 C23.996999740600586,-33.854000091552734 -23.996999740600586,-33.854000091552734 -23.996999740600586,-33.854000091552734 C-23.996999740600586,-33.854000091552734 -23.996999740600586,33.854000091552734 -23.996999740600586,33.854000091552734 C-23.996999740600586,33.854000091552734 23.996999740600586,33.854000091552734 23.996999740600586,33.854000091552734 C23.996999740600586,33.854000091552734 23.996999740600586,-33.854000091552734 23.996999740600586,-33.854000091552734z"></path></g></g></g><g fill="rgb(0,0,0)" font-size="13" font-family="Mabry Pro" font-style="normal" font-weight="500" aria-label="WE THINK YOU’LL LIKE" transform="matrix(1,0,0,1,9.798999786376953,20.875)" opacity="1" style="display: block;"><g stroke-linecap="butt" stroke-linejoin="round" stroke-miterlimit="4" transform="matrix(1,0,0,1,0,0)" opacity="1" style="display: inherit;"><g><g transform="matrix(1,0,0,1,0,0)" opacity="1" style="display: block;"><path d=" M2.32,0 C2.32,0 4.67,0 4.67,0 C4.67,0 6.57,-8.21 6.57,-8.21 C6.57,-8.21 8.47,0 8.47,0 C8.47,0 10.83,0 10.83,0 C10.83,0 12.99,-9.16 12.99,-9.16 C12.99,-9.16 11.48,-9.16 11.48,-9.16 C11.48,-9.16 9.65,-1.01 9.65,-1.01 C9.65,-1.01 7.82,-9.16 7.82,-9.16 C7.82,-9.16 5.33,-9.16 5.33,-9.16 C5.33,-9.16 3.5,-1.01 3.5,-1.01 C3.5,-1.01 1.66,-9.16 1.66,-9.16 C1.66,-9.16 0.16,-9.16 0.16,-9.16 C0.16,-9.16 2.32,0 2.32,0z"></path><g opacity="1" transform="matrix(0.12999999523162842,0,0,0.12999999523162842,0,0)"></g></g></g></g><g stroke-linecap="butt" stroke-linejoin="round" stroke-miterlimit="4" transform="matrix(1,0,0,1,13.052000045776367,0)" opacity="1" style="display: inherit;"><g><g transform="matrix(1,0,0,1,0,0)" opacity="1" style="display: block;"><path d=" M0.94,-9.16 C0.94,-9.16 0.94,0 0.94,0 C0.94,0 7.75,0 7.75,0 C7.75,0 7.75,-1.37 7.75,-1.37 C7.75,-1.37 2.38,-1.37 2.38,-1.37 C2.38,-1.37 2.38,-4.06 2.38,-4.06 C2.38,-4.06 7.23,-4.06 7.23,-4.06 C7.23,-4.06 7.23,-5.43 7.23,-5.43 C7.23,-5.43 2.38,-5.43 2.38,-5.43 C2.38,-5.43 2.38,-7.79 2.38,-7.79 C2.38,-7.79 7.62,-7.79 7.62,-7.79 C7.62,-7.79 7.62,-9.16 7.62,-9.16 C7.62,-9.16 0.94,-9.16 0.94,-9.16z"></path><g opacity="1" transform="matrix(0.12999999523162842,0,0,0.12999999523162842,0,0)"></g></g></g></g><g stroke-linecap="butt" stroke-linejoin="round" stroke-miterlimit="4" transform="matrix(1,0,0,1,21.397998809814453,0)" opacity="1" style="display: inherit;"><g><g style="display: none;"></g></g></g><g stroke-linecap="butt" stroke-linejoin="round" stroke-miterlimit="4" transform="matrix(1,0,0,1,24.51799964904785,0)" opacity="1" style="display: inherit;"><g><g transform="matrix(1,0,0,1,0,0)" opacity="1" style="display: block;"><path d=" M8.48,-9.16 C8.48,-9.16 0.37,-9.16 0.37,-9.16 C0.37,-9.16 0.37,-7.79 0.37,-7.79 C0.37,-7.79 3.7,-7.79 3.7,-7.79 C3.7,-7.79 3.7,0 3.7,0 C3.7,0 5.15,0 5.15,0 C5.15,0 5.15,-7.79 5.15,-7.79 C5.15,-7.79 8.48,-7.79 8.48,-7.79 C8.48,-7.79 8.48,-9.16 8.48,-9.16z"></path><g opacity="1" transform="matrix(0.12999999523162842,0,0,0.12999999523162842,0,0)"></g></g></g></g><g stroke-linecap="butt" stroke-linejoin="round" stroke-miterlimit="4" transform="matrix(1,0,0,1,33.40999984741211,0)" opacity="1" style="display: inherit;"><g><g transform="matrix(1,0,0,1,0,0)" opacity="1" style="display: block;"><path d=" M7.36,-3.86 C7.36,-3.86 7.36,0 7.36,0 C7.36,0 8.8,0 8.8,0 C8.8,0 8.8,-9.16 8.8,-9.16 C8.8,-9.16 7.36,-9.16 7.36,-9.16 C7.36,-9.16 7.36,-5.17 7.36,-5.17 C7.36,-5.17 2.38,-5.17 2.38,-5.17 C2.38,-5.17 2.38,-9.16 2.38,-9.16 C2.38,-9.16 0.94,-9.16 0.94,-9.16 C0.94,-9.16 0.94,0 0.94,0 C0.94,0 2.38,0 2.38,0 C2.38,0 2.38,-3.86 2.38,-3.86 C2.38,-3.86 7.36,-3.86 7.36,-3.86z"></path><g opacity="1" transform="matrix(0.12999999523162842,0,0,0.12999999523162842,0,0)"></g></g></g></g><g stroke-linecap="butt" stroke-linejoin="round" stroke-miterlimit="4" transform="matrix(1,0,0,1,43.082000732421875,0)" opacity="1" style="display: inherit;"><g><g transform="matrix(1,0,0,1,0,0)" opacity="1" style="display: block;"><path d=" M0.94,0 C0.94,0 2.38,0 2.38,0 C2.38,0 2.38,-9.16 2.38,-9.16 C2.38,-9.16 0.94,-9.16 0.94,-9.16 C0.94,-9.16 0.94,0 0.94,0z"></path><g opacity="1" transform="matrix(0.12999999523162842,0,0,0.12999999523162842,0,0)"></g></g></g></g><g stroke-linecap="butt" stroke-linejoin="round" stroke-miterlimit="4" transform="matrix(1,0,0,1,46.384002685546875,0)" opacity="1" style="display: inherit;"><g><g transform="matrix(1,0,0,1,0,0)" opacity="1" style="display: block;"><path d=" M2.38,-8.12 C2.38,-8.12 6.65,0 6.65,0 C6.65,0 9.15,0 9.15,0 C9.15,0 9.15,-9.16 9.15,-9.16 C9.15,-9.16 7.71,-9.16 7.71,-9.16 C7.71,-9.16 7.71,-1.03 7.71,-1.03 C7.71,-1.03 3.44,-9.16 3.44,-9.16 C3.44,-9.16 0.94,-9.16 0.94,-9.16 C0.94,-9.16 0.94,0 0.94,0 C0.94,0 2.38,0 2.38,0 C2.38,0 2.38,-8.12 2.38,-8.12z"></path><g opacity="1" transform="matrix(0.12999999523162842,0,0,0.12999999523162842,0,0)"></g></g></g></g><g stroke-linecap="butt" stroke-linejoin="round" stroke-miterlimit="4" transform="matrix(1,0,0,1,56.40700149536133,0)" opacity="1" style="display: inherit;"><g><g transform="matrix(1,0,0,1,0,0)" opacity="1" style="display: block;"><path d=" M5.16,-5.58 C5.16,-5.58 8.54,-9.16 8.54,-9.16 C8.54,-9.16 6.64,-9.16 6.64,-9.16 C6.64,-9.16 2.38,-4.62 2.38,-4.62 C2.38,-4.62 2.38,-9.16 2.38,-9.16 C2.38,-9.16 0.94,-9.16 0.94,-9.16 C0.94,-9.16 0.94,0 0.94,0 C0.94,0 2.38,0 2.38,0 C2.38,0 2.38,-2.62 2.38,-2.62 C2.38,-2.62 4.14,-4.49 4.14,-4.49 C4.14,-4.49 6.97,0 6.97,0 C6.97,0 8.73,0 8.73,0 C8.73,0 5.16,-5.58 5.16,-5.58z"></path><g opacity="1" transform="matrix(0.12999999523162842,0,0,0.12999999523162842,0,0)"></g></g></g></g><g stroke-linecap="butt" stroke-linejoin="round" stroke-miterlimit="4" transform="matrix(1,0,0,1,65.20800018310547,0)" opacity="1" style="display: inherit;"><g><g style="display: none;"></g></g></g><g stroke-linecap="butt" stroke-linejoin="round" stroke-miterlimit="4" style="display: inherit;"><g><g style="display: none;"></g></g></g><g stroke-linecap="butt" stroke-linejoin="round" stroke-miterlimit="4" transform="matrix(1,0,0,1,0,15)" opacity="1" style="display: inherit;"><g><g transform="matrix(1,0,0,1,0,0)" opacity="1" style="display: block;"><path d=" M1.92,-9.16 C1.92,-9.16 0.16,-9.16 0.16,-9.16 C0.16,-9.16 3.82,-3.73 3.82,-3.73 C3.82,-3.73 3.82,0 3.82,0 C3.82,0 5.26,0 5.26,0 C5.26,0 5.26,-3.73 5.26,-3.73 C5.26,-3.73 8.93,-9.16 8.93,-9.16 C8.93,-9.16 7.29,-9.16 7.29,-9.16 C7.29,-9.16 4.54,-5 4.54,-5 C4.54,-5 1.92,-9.16 1.92,-9.16z"></path><g opacity="1" transform="matrix(0.12999999523162842,0,0,0.12999999523162842,0,0)"></g></g></g></g><g stroke-linecap="butt" stroke-linejoin="round" stroke-miterlimit="4" transform="matrix(1,0,0,1,9.022000312805176,15)" opacity="1" style="display: inherit;"><g><g transform="matrix(1,0,0,1,0,0)" opacity="1" style="display: block;"><path d=" M5.33,-1.24 C3.52,-1.24 2.06,-2.58 2.06,-4.57 C2.06,-6.53 3.48,-7.92 5.33,-7.92 C7.17,-7.92 8.6,-6.56 8.6,-4.58 C8.6,-2.61 7.14,-1.24 5.33,-1.24z M5.33,-9.3 C2.71,-9.35 0.5,-7.15 0.55,-4.58 C0.5,-2 2.71,0.18 5.33,0.13 C7.95,0.18 10.16,-2 10.11,-4.58 C10.16,-7.15 7.95,-9.35 5.33,-9.3z"></path><g opacity="1" transform="matrix(0.12999999523162842,0,0,0.12999999523162842,0,0)"></g></g></g></g><g stroke-linecap="butt" stroke-linejoin="round" stroke-miterlimit="4" transform="matrix(1,0,0,1,19.604000091552734,15)" opacity="1" style="display: inherit;"><g><g transform="matrix(1,0,0,1,0,0)" opacity="1" style="display: block;"><path d=" M0.84,-9.16 C0.84,-9.16 0.84,-3.67 0.84,-3.67 C0.84,-1.41 2.33,0.13 4.66,0.13 C6.99,0.13 8.48,-1.41 8.48,-3.67 C8.48,-3.67 8.48,-9.16 8.48,-9.16 C8.48,-9.16 7.04,-9.16 7.04,-9.16 C7.04,-9.16 7.04,-3.74 7.04,-3.74 C7.04,-2.16 6.07,-1.24 4.66,-1.24 C3.25,-1.24 2.28,-2.16 2.28,-3.74 C2.28,-3.74 2.28,-9.16 2.28,-9.16 C2.28,-9.16 0.84,-9.16 0.84,-9.16z"></path><g opacity="1" transform="matrix(0.12999999523162842,0,0,0.12999999523162842,0,0)"></g></g></g></g><g stroke-linecap="butt" stroke-linejoin="round" stroke-miterlimit="4" transform="matrix(1,0,0,1,28.85999870300293,15)" opacity="1" style="display: inherit;"><g><g transform="matrix(1,0,0,1,0,0)" opacity="1" style="display: block;"><path d=" M0.86,-9.16 C0.86,-9.16 0.86,-7.59 0.86,-7.59 C0.86,-7.59 1.2,-7.59 1.2,-7.59 C1.48,-7.59 1.65,-7.46 1.65,-7.2 C1.65,-6.94 1.45,-6.81 1.07,-6.81 C1.07,-6.81 0.6,-6.81 0.6,-6.81 C0.6,-6.81 0.6,-6.02 0.6,-6.02 C0.6,-6.02 1,-6.02 1,-6.02 C1.85,-6.02 2.44,-6.31 2.44,-7.2 C2.44,-7.2 2.44,-9.16 2.44,-9.16 C2.44,-9.16 0.86,-9.16 0.86,-9.16z"></path><g opacity="1" transform="matrix(0.12999999523162842,0,0,0.12999999523162842,0,0)"></g></g></g></g><g stroke-linecap="butt" stroke-linejoin="round" stroke-miterlimit="4" transform="matrix(1,0,0,1,31.876001358032227,15)" opacity="1" style="display: inherit;"><g><g transform="matrix(1,0,0,1,0,0)" opacity="1" style="display: block;"><path d=" M0.94,-9.16 C0.94,-9.16 0.94,0 0.94,0 C0.94,0 7.88,0 7.88,0 C7.88,0 7.88,-1.37 7.88,-1.37 C7.88,-1.37 2.38,-1.37 2.38,-1.37 C2.38,-1.37 2.38,-9.16 2.38,-9.16 C2.38,-9.16 0.94,-9.16 0.94,-9.16z"></path><g opacity="1" transform="matrix(0.12999999523162842,0,0,0.12999999523162842,0,0)"></g></g></g></g><g stroke-linecap="butt" stroke-linejoin="round" stroke-miterlimit="4" transform="matrix(1,0,0,1,40.22200012207031,15)" opacity="1" style="display: inherit;"><g><g transform="matrix(1,0,0,1,0,0)" opacity="1" style="display: block;"><path d=" M0.94,-9.16 C0.94,-9.16 0.94,0 0.94,0 C0.94,0 7.88,0 7.88,0 C7.88,0 7.88,-1.37 7.88,-1.37 C7.88,-1.37 2.38,-1.37 2.38,-1.37 C2.38,-1.37 2.38,-9.16 2.38,-9.16 C2.38,-9.16 0.94,-9.16 0.94,-9.16z"></path><g opacity="1" transform="matrix(0.12999999523162842,0,0,0.12999999523162842,0,0)"></g></g></g></g><g stroke-linecap="butt" stroke-linejoin="round" stroke-miterlimit="4" transform="matrix(1,0,0,1,48.56800079345703,15)" opacity="1" style="display: inherit;"><g><g style="display: none;"></g></g></g><g stroke-linecap="butt" stroke-linejoin="round" stroke-miterlimit="4" transform="matrix(1,0,0,1,51.6879997253418,15)" opacity="1" style="display: inherit;"><g><g transform="matrix(1,0,0,1,0,0)" opacity="1" style="display: block;"><path d=" M0.94,-9.16 C0.94,-9.16 0.94,0 0.94,0 C0.94,0 7.88,0 7.88,0 C7.88,0 7.88,-1.37 7.88,-1.37 C7.88,-1.37 2.38,-1.37 2.38,-1.37 C2.38,-1.37 2.38,-9.16 2.38,-9.16 C2.38,-9.16 0.94,-9.16 0.94,-9.16z"></path><g opacity="1" transform="matrix(0.12999999523162842,0,0,0.12999999523162842,0,0)"></g></g></g></g><g stroke-linecap="butt" stroke-linejoin="round" stroke-miterlimit="4" transform="matrix(1,0,0,1,60.034000396728516,15)" opacity="1" style="display: inherit;"><g><g transform="matrix(1,0,0,1,0,0)" opacity="1" style="display: block;"><path d=" M0.94,0 C0.94,0 2.38,0 2.38,0 C2.38,0 2.38,-9.16 2.38,-9.16 C2.38,-9.16 0.94,-9.16 0.94,-9.16 C0.94,-9.16 0.94,0 0.94,0z"></path><g opacity="1" transform="matrix(0.12999999523162842,0,0,0.12999999523162842,0,0)"></g></g></g></g><g stroke-linecap="butt" stroke-linejoin="round" stroke-miterlimit="4" transform="matrix(1,0,0,1,63.336002349853516,15)" opacity="1" style="display: inherit;"><g><g transform="matrix(1,0,0,1,0,0)" opacity="1" style="display: block;"><path d=" M5.16,-5.58 C5.16,-5.58 8.54,-9.16 8.54,-9.16 C8.54,-9.16 6.64,-9.16 6.64,-9.16 C6.64,-9.16 2.38,-4.62 2.38,-4.62 C2.38,-4.62 2.38,-9.16 2.38,-9.16 C2.38,-9.16 0.94,-9.16 0.94,-9.16 C0.94,-9.16 0.94,0 0.94,0 C0.94,0 2.38,0 2.38,0 C2.38,0 2.38,-2.62 2.38,-2.62 C2.38,-2.62 4.14,-4.49 4.14,-4.49 C4.14,-4.49 6.97,0 6.97,0 C6.97,0 8.73,0 8.73,0 C8.73,0 5.16,-5.58 5.16,-5.58z"></path><g opacity="1" transform="matrix(0.12999999523162842,0,0,0.12999999523162842,0,0)"></g></g></g></g><g stroke-linecap="butt" stroke-linejoin="round" stroke-miterlimit="4" transform="matrix(1,0,0,1,72.13699340820312,15)" opacity="1" style="display: inherit;"><g><g transform="matrix(1,0,0,1,0,0)" opacity="1" style="display: block;"><path d=" M0.94,-9.16 C0.94,-9.16 0.94,0 0.94,0 C0.94,0 7.75,0 7.75,0 C7.75,0 7.75,-1.37 7.75,-1.37 C7.75,-1.37 2.38,-1.37 2.38,-1.37 C2.38,-1.37 2.38,-4.06 2.38,-4.06 C2.38,-4.06 7.23,-4.06 7.23,-4.06 C7.23,-4.06 7.23,-5.43 7.23,-5.43 C7.23,-5.43 2.38,-5.43 2.38,-5.43 C2.38,-5.43 2.38,-7.79 2.38,-7.79 C2.38,-7.79 7.62,-7.79 7.62,-7.79 C7.62,-7.79 7.62,-9.16 7.62,-9.16 C7.62,-9.16 0.94,-9.16 0.94,-9.16z"></path><g opacity="1" transform="matrix(0.12999999523162842,0,0,0.12999999523162842,0,0)"></g></g></g></g></g><g transform="matrix(0.4000000059604645,0,0,0.4000000059604645,80,-45.70020294189453)" opacity="1" style="display: block;"><g opacity="1" transform="matrix(1,0,0,1,-150,264.25)"><path fill="#C4E8BF" fill-opacity="1" d=" M0,-25 C13.797499656677246,-25 25,-13.797499656677246 25,0 C25,13.797499656677246 13.797499656677246,25 0,25 C-13.797499656677246,25 -25,13.797499656677246 -25,0 C-25,-13.797499656677246 -13.797499656677246,-25 0,-25z"></path></g></g><g transform="matrix(0.4000000059604645,0,0,0.4000000059604645,80.2107925415039,-45.151397705078125)" opacity="1" style="display: block;"><g opacity="1" transform="matrix(1,0,0,1,0,0)"><path stroke-linecap="butt" stroke-linejoin="miter" fill-opacity="0" stroke-miterlimit="4" stroke="#000000" stroke-opacity="1" stroke-width="2px" d=" M-161,262.875 C-161,262.875 -153,271.25 -153,271.25 C-153,271.25 -135.625,252.75 -135.625,252.75"></path></g></g><g transform="matrix(0.4000000059604645,0,0,0.4000000059604645,80.21080017089844,-45.151405334472656)" opacity="1" style="display: block;"><g opacity="1" transform="matrix(1,0,0,1,0,0)"><path stroke-linecap="butt" stroke-linejoin="miter" fill-opacity="0" stroke-miterlimit="4" stroke="#000000" stroke-opacity="1" stroke-width="2px" d="M0 0"></path></g></g></g></svg>