<svg xmlns:xlink="http://www.w3.org/1999/xlink" xmlns="http://www.w3.org/2000/svg" width="149" height="40" viewBox="0 0 253 29" fill="none"><g clip-path="url(#a)" fill="white"><path d="M194.979 14.398c0 2.583.11 5.173-.023 7.758-.29 5.68-6.129 8.655-11.02 5.675a5.784 5.784 0 0 1-2.866-4.942c-.128-5.657-.229-11.325 0-16.975.16-3.911 2.998-5.992 7.258-5.908 3.836.076 6.374 2.408 6.592 6.307.151 2.688.029 5.392.029 8.09l.03-.005Zm-10.071-.016h-.084c0 1.255-.044 2.51.011 3.763.064 1.476.101 2.966.357 4.42.268 1.51 1.3 2.252 2.733 2.282 1.433.03 2.408-.685 2.815-2.177a8.56 8.56 0 0 0 .321-2.134c.032-4.03.043-8.06 0-12.094a9.373 9.373 0 0 0-.424-2.574c-.396-1.316-1.265-1.857-2.675-1.855-1.41.003-2.25.553-2.671 1.87a7.217 7.217 0 0 0-.371 2.005c-.051 2.16-.021 4.329-.021 6.494h.009ZM88.105 11.856h6.18c.02-.392.06-.792.06-1.191V2.336c0-1.597.4-1.948 2.087-1.94 1.586 0 1.918.343 1.918 1.97v24.069c0 1.61-.424 2.028-2.019 2.021-1.595-.006-1.989-.435-1.991-2.074V16.03h-6.18c-.016.406-.05.812-.05 1.216V26.6c0 1.493-.44 1.872-2.06 1.858-1.474 0-1.895-.422-1.898-1.903V2.26c0-1.51.367-1.855 1.91-1.862 1.695 0 2.038.287 2.043 1.825v9.632ZM56.784 12.463v9.235c0 2.572-.582 4.929-3.079 6.161-2.783 1.37-5.694 1.43-8.432-.16-1.904-1.106-2.687-3.01-2.703-5.12-.057-6.88-.034-13.76-.02-20.637 0-1.241.492-1.56 2.103-1.55 1.474.012 1.927.39 1.93 1.748.01 6.118 0 12.238.015 18.356-.013.795.074 1.59.26 2.364.365 1.385 1.404 2.021 2.954 1.973 1.55-.047 2.481-.748 2.774-2.2a11.06 11.06 0 0 0 .2-2.146c.013-6.006.013-12.011 0-18.016 0-1.873 1.574-2.85 3.229-1.891.423.244.714 1.058.723 1.617.078 3.423.046 6.846.046 10.267ZM165.447 4.506v7.567h5.52c1.525 0 1.95.445 1.95 1.98 0 1.536-.43 1.99-1.945 2.002-1.831.016-3.644 0-5.525 0v8.527c2.222 0 4.387.078 6.543-.02 2.257-.103 2.461.819 2.14 2.906-.061.404-.819.99-1.27 1.002-3.39.085-6.782.069-10.174.035-1.014 0-1.336-.724-1.336-1.632V2.594c0-1.748.37-2.108 2.156-2.11h8.347c1.753 0 2.103.344 2.097 2.035 0 1.597-.392 1.974-2.06 1.976-2.115.014-4.242.011-6.443.011ZM244.186 16.062v8.527c2.223 0 4.388.082 6.544-.023 2.335-.112 2.454.94 2.149 2.905-.061.406-.817.995-1.265 1.006-3.39.084-6.784.055-10.176.041-.824 0-1.227-.53-1.33-1.296a7.13 7.13 0 0 1-.016-.913V2.71c0-1.862.348-2.217 2.167-2.22h8.579c1.471 0 1.851.416 1.861 1.93 0 1.628-.371 2.07-1.832 2.08-2.201.013-4.403 0-6.669 0v7.566h5.525c1.527 0 1.941.438 1.941 1.985 0 1.547-.412 1.986-1.943 1.997-1.827.025-3.651.014-5.535.014ZM7.073 10.095c.51-1.45.915-2.608 1.327-3.772.547-1.576 1.067-3.167 1.637-4.737.425-1.177 3.174-1.78 3.962-.81.27.333.27 1.086.1 1.54-1.515 4.108-3.113 8.163-4.644 12.252a6.36 6.36 0 0 0-.386 2.097c-.04 3.267-.012 6.537-.021 9.812 0 1.572-.458 1.996-2.076 1.985-1.504 0-1.934-.456-1.955-1.992-.045-3.756.385-7.601-.281-11.245C4.07 11.58 2.307 8.13 1.026 4.596.728 3.775.415 2.96.136 2.132-.236 1.027.153.482 1.33.404 3.71.251 3.809.318 4.557 2.615c.669 2.062 1.34 4.12 2.014 6.175.113.338.254.669.502 1.305ZM67.985 4.358c-1.286 0-2.42.014-3.552 0-1.403-.02-1.763-.456-1.758-2.029 0-1.494.361-1.919 1.735-1.923 3.735-.014 7.469-.014 11.201 0 1.334 0 1.682.456 1.68 1.974-.002 1.517-.36 1.95-1.689 1.976-1.144.02-2.273 0-3.587 0V26.16c0 1.873-.361 2.282-1.984 2.282s-2.044-.422-2.044-2.25V5.91l-.002-1.552ZM226.755 24.59c2.218 0 4.269-.05 6.317.03.616.024 1.62.277 1.742.652.258.803.158 1.773-.014 2.633-.055.276-.787.589-1.215.595-3.125.05-6.251.028-9.384.028-.943 0-1.374-.54-1.474-1.406a6.414 6.414 0 0 1-.016-.796c0-7.863.036-15.729-.023-23.594-.019-2.435 1.297-2.435 3.09-2.143.849.14.975.926.975 1.711-.014 5.433 0 10.866 0 16.3l.002 5.99ZM120.178 20.91v-3.94h2.211v10.832c-.219.046-.441.08-.664.102-1.543.06-1.543.057-1.543-1.529v-3.03h-1.879v4.459h-2.261V16.956h2.177v3.957l1.959-.003ZM132.347 16.975v2.174h-4.156v1.826h3.204v2.243h-3.172v2.348h4.09v2.238h-6.376V16.982l6.41-.007ZM117.745.724v2.158l-1.844.096v8.589h-2.289v-8.57l-1.882-.11V.724h6.015ZM111.222 27.834h-2.241v-8.596l-1.854-.139v-2.138h5.978v2.108l-1.883.176v8.589ZM34.513 14.399h-.03c0-2.697.124-5.401-.027-8.09-.229-3.9-2.758-6.231-6.594-6.307C23.602-.082 20.767 2 20.604 5.91c-.229 5.65-.137 11.318 0 16.975.009 1 .278 1.98.78 2.846a5.79 5.79 0 0 0 2.088 2.092c4.889 2.98 10.73 0 11.02-5.675.131-2.576.021-5.166.021-7.75Zm-3.92 6.129a8.461 8.461 0 0 1-.32 2.133c-.408 1.495-1.374 2.2-2.816 2.177-1.442-.023-2.465-.762-2.733-2.282-.256-1.449-.293-2.943-.357-4.42-.055-1.252-.011-2.51-.011-3.762h.084c0-2.166-.027-4.336.019-6.5a7.086 7.086 0 0 1 .37-2.005C25.25 4.552 26.09 4.003 27.5 4c1.41-.002 2.278.539 2.676 1.855.258.838.398 1.707.417 2.583.036 4.03.025 8.062 0 12.09ZM154.973 5.495c-.419-3.143-2.094-4.564-5.285-4.843-2.044-.178-4.12-.134-6.18-.157-1.934-.02-2.238.301-2.24 2.255v23.38c0 2.183.364 2.51 2.536 2.404.984-.05 1.46-.536 1.462-1.503V16.605c1.497 0 2.795.057 4.086 0 3.041-.164 5.001-1.664 5.493-4.664.355-2.132.398-4.303.128-6.446Zm-4.035 5.588c-.083.88-.801 1.476-1.76 1.508-1.245.041-2.493 0-3.818 0V4.56c1.273 0 2.449-.03 3.623 0 1.08.034 1.923.61 2.007 1.666a27.755 27.755 0 0 1-.052 4.858ZM215.841 5.004c-.7-2.775-2.174-4.107-5.024-4.335-2.236-.178-4.491-.151-6.736-.178-1.41-.016-1.831.422-1.831 1.825v24.4c0 1.426.394 1.787 1.854 1.798 1.737.014 2.108-.276 2.117-1.762.018-2.925 0-5.852 0-8.778 0-.406.037-.814.062-1.369 1.343 0 2.595.043 3.84 0 3.175-.135 5.022-1.632 5.743-4.712a14.434 14.434 0 0 0-.025-6.889Zm-3.909 5.892c-.099 1.05-.856 1.666-1.955 1.718-1.023.05-2.06.098-3.072.064-.228 0-.64-.347-.643-.54-.043-2.49-.029-4.98-.029-7.517 1.446 0 2.769-.069 4.078.023 1 .07 1.602.83 1.676 1.748.104 1.5.085 3.006-.055 4.504ZM126.692 2.612c-.044-1.188-.764-1.896-1.95-1.946a31.59 31.59 0 0 0-2.63 0c-1.124.048-1.909.742-1.932 1.848-.05 2.434-.05 4.868 0 7.302.023 1.141.765 1.775 1.932 1.812.838.027 1.678.023 2.518 0 1.325-.03 2.03-.721 2.06-2.054.029-1.14 0-2.281 0-3.422.011-1.182.043-2.362.002-3.54Zm-2.346 6.695h-1.831V2.99h1.831v6.318Z"/></g><defs><clipPath id="a"><path fill="black" d="M0 0h253v29H0z"/></clipPath></defs></svg>